<svg xmlns:xlink="http://www.w3.org/1999/xlink" width="2.079ex" height="2.176ex" style="font-size: 15px; vertical-align: -0.338ex;" viewBox="0 -791.3 895 936.9" role="img" focusable="false" xmlns="http://www.w3.org/2000/svg">
<defs>
<path stroke-width="1" id="E1-MJMAINB-35" d="M100 565V605Q100 637 102 646T113 655Q116 655 139 647T202 631T286 623Q332 623 372 631T434 647T459 655Q466 655 469 651T472 643T472 629Q472 613 463 601Q370 487 219 487Q195 487 183 488T169 490T168 433V376Q169 376 174 379T188 387T211 397T244 405T288 409Q390 409 453 352T517 201Q517 106 445 48T253 -11Q169 -11 113 37T57 154Q57 187 79 208T131 229T183 209T206 154Q206 99 155 83Q152 82 157 78Q196 47 253 47Q347 47 358 135Q358 137 358 138Q360 158 360 209Q360 277 355 301T337 338Q315 358 282 358Q202 358 160 303Q153 294 149 292T130 290Q107 290 102 301Q100 304 100 474V565Z"></path>
<path stroke-width="1" id="E1-MJMAINB-2E" d="M74 85Q74 121 99 146T156 171Q200 171 222 143T245 85Q245 56 224 29T160 1Q118 1 96 27T74 85Z"></path>
</defs>
<g stroke="currentColor" fill="currentColor" stroke-width="0" transform="matrix(1 0 0 -1 0 0)">
 <use xlink:href="#E1-MJMAINB-35"></use>
 <use xlink:href="#E1-MJMAINB-2E" x="575" y="0"></use>
</g>
</svg>