<svg xmlns="http://www.w3.org/2000/svg" xmlns:xlink="http://www.w3.org/1999/xlink" fill="none" viewBox="0 0 1040 400" xmlns:v="https://vecta.io/nano"><style><![CDATA[.B{fill-rule:evenodd}.C{fill:#fff}.D{fill:#02346e}.E{fill:#e6e6e8}.F{fill:#ffd480}.G{fill:#66cbff}.H{fill:#865a5a}.I{stroke:#ffd480}.J{stroke-width:1.4}.K{fill:#c4c4c4}.L{fill:#0461bb}.M{fill:#efa0a0}.N{fill:#ea9d9d}.O{fill:#dee0e3}.P{fill:#e59a9a}.Q{fill:#e09696}.R{fill:#db9393}.S{fill:#d69090}.T{fill:#d18c8c}.U{fill:#cc8989}.V{fill:#c78686}.W{fill:#c28282}.X{fill:#bd7f7f}.Y{fill:#b87c7c}.Z{fill:#b37878}.a{fill:#ae7575}.b{fill:#a97272}.c{fill:#a46e6e}.d{fill:#9f6b6b}.e{fill:#9a6868}.f{fill:#956464}.g{fill:#906161}.h{fill:#8b5e5e}.i{fill:#815757}.j{fill:#0c243a}.k{fill:#0572ec}.l{fill:#cc9c81}.m{fill:#0d2841}.n{fill:#ffaa05}.o{fill:#646669}.p{fill:#154068}.q{fill:#0f2f4c}.r{fill:#034ea6}]]></style><clipPath id="A"><path d="M0 0h1040v400H0z"/></clipPath><mask id="B" x="570" y="320" width="83" height="67" maskUnits="userSpaceOnUse"><path d="M583.182 321.826a2 2 0 0 1 2.563-1.195l65.779 23.941a2 2 0 0 1 1.195 2.564l-12.446 34.193a8 8 0 0 1-10.253 4.782l-54.502-19.838a8 8 0 0 1-4.782-10.253z" class="K"/></mask><mask id="C" x="104" y="255" width="150" height="113" maskUnits="userSpaceOnUse"><path d="m254 292-113.5 75.5-30-5-6-18.5 21-42.5c6.167-11.5 18.8-34.7 20-35.5 1.5-1 37-9.5 39-10 1.6-.4 34.667 3.167 51 5z" class="K"/></mask><mask id="D" class="C"><rect transform="matrix(.54464 -.83867 .83867 .54464 -209.5 275.76)" x="149.19" y="330.8" width="34.955" height="23.799" rx="1"/></mask><mask id="E" x="134" y="291" width="175" height="134" maskUnits="userSpaceOnUse"><path d="m134.5 371.5 121-80.5 30.5 15 22.5 41-11 38.5-36 33-38.5 6z" class="K"/></mask><mask id="F" x="735" y="304" width="37" height="79" maskUnits="userSpaceOnUse"><path d="M735 311l36.5-7-3.188 79H735z" class="K"/></mask><mask id="G" x="768" y="308" width="73" height="90" maskUnits="userSpaceOnUse"><path d="m771 316.5 70-8.5v90l-73-8.5z" class="D"/></mask><mask id="H" x="578" y="42" width="197" height="214" maskUnits="userSpaceOnUse"><use xlink:href="#J" class="m"/></mask><g clip-path="url(#A)"><path d="M0 0h1040v400H0z" class="D"/><path d="M582.493 323.717a8 8 0 0 1 5.215-4.925l34.653-10.418a8 8 0 0 1 8.992 3.273l19.849 30.255a8 8 0 0 1 .829 7.124l-11.758 32.303a8 8 0 0 1-10.253 4.782l-54.502-19.838a8 8 0 0 1-4.782-10.253z" class="n"/><path d="M597.507 305.073a4 4 0 0 1 5.126-2.39l47.49 17.284a4 4 0 0 1 2.391 5.127l-8.076 22.188-33.737 7.115-21.27-27.136z" class="C"/><rect transform="matrix(.93969 .34202 -.34202 .93969 145.93 -186.08)" x="600.62" y="320.75" width="41.97" height="11.045" rx="5.522" class="E"/><path d="M612.785 329.297l-3.114-1.133-1.133 3.113 3.114 1.134zm-6.275-.521c-.313.86-1.264 1.303-2.123.99s-1.304-1.263-.991-2.123 1.264-1.303 2.124-.99 1.303 1.263.99 2.123zm9.747 5.189a1.66 1.66 0 0 1-1.657-1.657c0-.915.742-1.656 1.657-1.656zm2.74-.745l2.002-.933.933 2.002-2.002.933zm6.147 4.101c.86.313 1.81-.13 2.123-.99s-.13-1.81-.99-2.123-1.81.13-2.123.99.13 1.811.99 2.123z" class="B D"/><path d="M597.507 305.073a4 4 0 0 1 5.126-2.39l47.49 17.284a4 4 0 0 1 2.391 5.127l-1.276 3.507-55.008-20.021z" class="L"/><g mask="url(#B)"><path d="m583.87 319.95 53.671 68.9-69.537-25.31z" class="F"/><path d="m653.4 345.26-85.403 18.281 69.537 25.31z" fill="#ffe9bc"/></g><rect transform="matrix(.93969 .34202 -.34202 .93969 132.6 -131.99)" x="440.58" y="310" width="114" height="24" rx="12" class="n"/><path d="m455.849 330.228-.753 1.789 1.429.52.609-1.841 1.149 1.51 1.162-.972-1.301-1.424 1.912-.254-.272-1.474-1.904.399.77-1.783-1.429-.519-.573 1.853-1.178-1.541-1.181.966 1.313 1.448-1.906.237.266 1.491zm10.982 3.998-.752 1.788 1.428.52.609-1.841 1.149 1.51 1.163-.972-1.302-1.424 1.913-.254-.273-1.474-1.904.399.77-1.782-1.428-.52-.574 1.853-1.178-1.54-1.18.965 1.313 1.448-1.906.237.266 1.492zm10.982 3.997-.752 1.788 1.429.52.609-1.84 1.149 1.51 1.162-.972-1.301-1.424 1.912-.255-.272-1.474-1.904.399.77-1.782-1.429-.52-.573 1.854-1.178-1.541-1.181.965 1.313 1.449-1.906.236.266 1.492zm10.983 3.997-.752 1.789 1.428.52.609-1.841 1.149 1.51 1.163-.972-1.302-1.424 1.913-.254-.273-1.474-1.904.398.77-1.782-1.428-.52-.574 1.854-1.178-1.541-1.18.966 1.313 1.448-1.906.236.266 1.492zm10.982 3.997-.752 1.789 1.429.52.609-1.841 1.149 1.51 1.162-.972-1.301-1.424 1.912-.254-.272-1.474-1.904.399.77-1.782-1.429-.52-.573 1.853-1.178-1.541-1.181.966 1.313 1.448-1.906.237.266 1.492zm10.983 3.998-.752 1.788 1.428.52.609-1.84 1.149 1.51 1.163-.972-1.302-1.424 1.913-.255-.273-1.474-1.904.399.77-1.782-1.428-.52-.574 1.854-1.178-1.541-1.18.965 1.313 1.449-1.906.236.266 1.492zm10.982 3.997-.752 1.789 1.429.519.609-1.84 1.149 1.51 1.162-.972-1.301-1.424 1.912-.254-.272-1.474-1.904.398.77-1.782-1.429-.52-.573 1.854-1.178-1.541-1.181.966 1.313 1.448-1.906.236.266 1.492z" class="C"/><rect transform="matrix(.34202 -.93969 .93969 .34202 -153.32 507.87)" x="286" y="363.42" width="76" height="48" rx="4" class="L"/><path d="M316.671 363.938a2 2 0 0 1-1.195-2.563l3.42-9.397a2 2 0 1 1 3.759 1.368l-3.42 9.397a2 2 0 0 1-2.564 1.195zm7.518 2.736a2 2 0 0 1-1.196-2.563l6.841-18.794a2 2 0 1 1 3.759 1.368l-6.841 18.794a2 2 0 0 1-2.563 1.195zm14.537-45.789a2 2 0 1 0 3.759 1.368l2.052-5.638a2 2 0 0 0-1.195-2.563 2 2 0 0 0-2.563 1.195z" fill="#c2eaff" class="B"/><rect transform="matrix(.34202 -.93969 .93969 .34202 -139.86 513.77)" x="296.94" y="356.76" width="16" height="12" rx="2" class="G"/><circle transform="matrix(.34202 -.93969 .93969 .34202 -86.001 506.46)" cx="318.65" cy="314.64" r="4" opacity=".8" class="n"/><circle transform="matrix(.34202 -.93969 .93969 .34202 -80.461 504.98)" cx="320.36" cy="309.94" r="4" fill="#eb7100" opacity=".8"/><path d="m767.5 402 1.5-36.5s-19.44-9.44-50.71-9.44c-33.79-10.06-66.46 8.8-66.46 8.8s-13.03 6.84-24.43 2.93-11.08-8.47-21.83-5.21c0 0-6.84-8.8-27.37.98 0 0-20.85-50.82-89.59-23.46-15.64 4.89-28.02 20.2-43.66 20.52-15.64.33-25.41-11.28-40.4-11.51-14.99-.22-57.99 5.97-72 28.77 0 0-15.96-7.49-30.62-1.95s-29.97 10.75-43.98 5.54-106.96-22.38-143.45 3.03l-27 18 38.5 9.59z" fill="#16436c"/><path d="m583.5 387c-2.4 8.8-11 15-6.5 17.5l-1.5 2 92.5-2c.833-7.333.8-22.8-6-26-23.5 11-38.5-4.5-53-7.5s-22.5 5-25.5 16z" fill="#0f3659"/><ellipse transform="matrix(.98481 -.17365 .17365 .98481 -55.29 102.02)" cx="555.43" cy="367" rx="6" ry="3" fill="#f17ba5"/><g fill="#6ae4a9"><ellipse cx="564.5" cy="385.5" rx="9.5" ry="4.5"/><ellipse transform="matrix(.91251 .40906 -.40906 .91251 185 -84.306)" cx="289.58" cy="390.33" rx="5" ry="2.5"/><ellipse transform="matrix(1 -.001071 .001071 1 -.42116 .37151)" cx="346.58" cy="393.33" rx="5" ry="2.5"/></g><ellipse transform="matrix(.96203 -.27294 .27294 .96203 -93.458 102.25)" cx="320.79" cy="387.03" rx="8" ry="4" fill="#f17ba5"/><path d="M681.272 250.114l9.561-6.771.479.714-9.56 6.772-.48-.715z" class="M"/><path d="m681.751 250.829 9.561-6.772c.417.574.871 1.113 1.364 1.594l-9.561 6.771c-.492-.481-.947-1.019-1.364-1.593z" fill="#f4a4a4"/><path d="M683.115 252.434l9.561-6.772.846.773-9.561 6.772-.846-.773z" class="M"/><path d="M683.974 253.195l9.561-6.771.606.48-9.56 6.771-.607-.48z" class="N"/><path d="M684.581 253.675l9.56-6.771.518.363-9.561 6.771-.517-.363z" class="P"/><path d="M685.099 254.038l9.56-6.771c.152.106.316.199.48.293l-9.56 6.771-.48-.293z" class="Q"/><path d="M685.578 254.331l9.561-6.771.442.246-9.561 6.771c-.151-.07-.303-.152-.442-.246z" class="R"/><path d="M686.021 254.589l9.56-6.771.417.211-9.561 6.771c-.139-.059-.277-.141-.416-.211z" class="S"/><path d="M686.438 254.8l9.56-6.771.404.187-9.56 6.771-.404-.187z" class="T"/><path d="M686.842 254.987l9.56-6.771.392.164-9.561 6.771-.391-.164z" class="U"/><path d="M687.246 255.151l9.56-6.771.379.141-9.56 6.771a2.39 2.39 0 0 1-.379-.141z" class="V"/><path d="M687.625 255.304l9.56-6.772.379.129-9.561 6.772-.378-.129z" class="W"/><path d="M688.003 255.421l9.561-6.771.366.105-9.56 6.771-.367-.105z" class="X"/><path d="M688.37 255.526l9.56-6.771.366.094-9.56 6.771c-.114-.023-.24-.059-.366-.094z" class="Y"/><path d="M688.736 255.62l9.56-6.771.366.07-9.56 6.771c-.114-.011-.24-.047-.366-.07z" class="Z"/><path d="M689.102 255.69l9.56-6.771.341.059h.025l-9.56 6.771h-.025c-.101-.012-.215-.035-.341-.059z" class="a"/><path d="M689.481 255.761l9.561-6.772.379.047-9.561 6.771-.379-.046z" class="b"/><path d="M689.848 255.796l9.56-6.772.379.024-9.561 6.771c-.126 0-.252-.012-.378-.023z" class="c"/><path d="m690.226 255.831 9.561-6.771c.126.011.265.011.391.011l-9.56 6.772c-.126-.012-.253-.012-.392-.012z" class="d"/><path d="M690.618 255.831l9.56-6.771.404-.012-9.56 6.771c-.126.012-.265.012-.404.012z" class="e"/><path d="M691.035 255.819l9.56-6.771.429-.035-9.56 6.771c-.151.023-.29.035-.429.035z" class="f"/><path d="M691.464 255.784l9.561-6.771.467-.071-9.561 6.772c-.164.035-.315.058-.467.07z" class="g"/><path d="M691.918 255.714l9.561-6.772.517-.117-9.56 6.772c-.164.046-.341.082-.518.117z" class="h"/><path d="M692.449 255.597l9.561-6.772.606-.199-9.561 6.771-.606.2z" class="H"/><path d="M579.909 83.211l9.561-6.771.24.445-9.561 6.771-.24-.445z" class="N"/><path d="M581.133 73.839l9.561-6.771c-.467.328-.859.715-1.187 1.16l-9.561 6.771c.329-.445.72-.832 1.187-1.16z" class="i"/><path d="M579.946 74.999l9.561-6.771c-.126.176-.253.351-.354.551l-9.56 6.771c.101-.199.227-.375.353-.551z" class="H"/><path d="M579.593 75.549l9.56-6.771-.24.457-9.56 6.771c.075-.164.151-.316.24-.457z" class="h"/><path d="M579.353 76.006l9.56-6.771-.177.422-9.56 6.771c.05-.141.114-.281.177-.422z" class="g"/><path d="M579.176 76.428l9.561-6.771c-.051.129-.089.269-.127.398l-9.56 6.771.126-.398z" class="f"/><path d="M579.037 76.826l9.56-6.771-.101.375-9.56 6.771a3.22 3.22 0 0 1 .101-.375z" class="e"/><path d="M578.941 77.201l9.561-6.771-.076.363-9.56 6.771.075-.363z" class="d"/><path d="M578.869 77.576l9.561-6.771c-.026.117-.038.246-.051.363l-9.56 6.771.05-.363z" class="c"/><path d="M578.821 77.939l9.561-6.771-.038.352-9.56 6.771.037-.351z" class="b"/><path d="M578.784 78.29l9.561-6.771c-.013.117-.013.234-.013.363l-9.56 6.771.012-.363z" class="a"/><path d="M578.77 78.654l9.56-6.771v.363l-9.56 6.771v-.363z" class="Z"/><path d="M578.772 79.005l9.56-6.771.013.363-9.561 6.771-.012-.363z" class="Y"/><path d="M578.795 79.368l9.561-6.771.038.363-9.561 6.771c-.025-.117-.038-.246-.038-.363z" class="X"/><path d="M578.819 79.731l9.56-6.771.051.375-9.561 6.771-.05-.375z" class="W"/><path d="M578.866 80.106l9.56-6.771.063.375-9.56 6.771-.063-.375z" class="V"/><path d="M578.924 80.481l9.56-6.771.089.387-9.561 6.771-.088-.387z" class="U"/><path d="M579.025 80.868l9.56-6.771.114.41-9.561 6.771-.113-.41z" class="T"/><path d="M579.139 81.278l9.56-6.771.127.422-9.561 6.771-.126-.422z" class="S"/><path d="M579.265 81.7l9.56-6.771.164.457-9.56 6.771-.164-.457z" class="R"/><path d="M579.429 82.156l9.56-6.771.202.492-9.56 6.771-.202-.492z" class="Q"/><path d="M579.644 82.66l9.56-6.771.265.551-9.56 6.771-.265-.551z" class="P"/><path d="M579.909 83.211l9.561-6.771.24.445-9.561 6.771-.24-.445z" class="N"/><path d="M581.146 73.839l9.56-6.771a6.4 6.4 0 0 1 1.162-.633l-9.56 6.771c-.429.176-.821.387-1.162.633z" fill="#0b2338"/><path d="M582.309 73.206l9.56-6.771c.013-.012.025-.012.051-.023l-9.573 6.783c-.013 0-.026.012-.038.012z" class="j"/><g fill="#b9bdc2"><path d="M573.961 59.148l9.56-6.771c.442-.316.935-.574 1.465-.797l-9.56 6.771c-.543.222-1.023.48-1.465.797z"/><path d="M575.425 58.352l9.561-6.771c.012-.012.038-.012.05-.023l-9.56 6.771a.1.1 0 0 1-.051.023z"/></g><g class="M"><use xlink:href="#K"/><use xlink:href="#K"/></g><path d="M609.236 53.959l9.56-6.771a2.68 2.68 0 0 0 .341.398l-9.56 6.771c-.127-.129-.24-.258-.341-.398z" fill="#f4a4a4"/><path d="M609.588 54.357l9.561-6.771c.063.07.139.129.214.199l-9.56 6.771-.215-.199z" class="M"/><path d="M609.803 54.544l9.56-6.771c.051.047.101.082.152.117l-9.561 6.771c-.05-.035-.101-.07-.151-.117z" class="N"/><path d="M609.954 54.673l9.561-6.771c.038.035.088.059.126.094l-9.56 6.771c-.038-.035-.076-.07-.127-.094z" class="P"/><path d="M610.08 54.755l9.561-6.771.113.07-9.56 6.771c-.025-.012-.063-.047-.114-.07z" class="Q"/><path d="M610.207 54.837l9.561-6.771a.5.5 0 0 0 .113.059l-9.56 6.771c-.038-.023-.076-.035-.114-.059z" class="R"/><path d="M610.32 54.896l9.561-6.771c.038.023.075.035.101.059l-9.561 6.771c-.038-.023-.075-.035-.101-.059z" class="S"/><path d="M610.421 54.954l9.56-6.771c.038.012.063.035.101.047l-9.56 6.771a.39.39 0 0 0-.101-.047z" class="T"/><path d="M610.522 55.001l9.561-6.771.101.035-9.561 6.771-.101-.035z" class="U"/><g class="V"><path d="M610.623 55.036l9.56-6.771.101.035-9.56 6.771-.101-.035z"/><path d="M610.623 55.036l9.56-6.771.101.035-9.56 6.771-.101-.035z"/></g><path d="M610.705 55.071l9.56-6.771.089.035-9.561 6.771c-.025-.012-.05-.023-.088-.035z" class="W"/><path d="M610.799 55.107l9.56-6.771c.025.012.063.023.088.023l-9.56 6.771c-.025-.012-.063-.012-.088-.023z" class="X"/><path d="M610.901 55.13l9.561-6.771c.025.012.063.012.088.023l-9.56 6.771c-.026-.012-.051-.012-.089-.023z" class="Y"/><path d="M611.003 55.153l9.56-6.771c.025.012.063.012.088.023l-9.56 6.771c-.038-.012-.063-.012-.088-.023z" class="Z"/><path d="M611.091 55.177l9.56-6.771c.025 0 .063.012.088.012h.013l-9.56 6.771c-.051-.012-.076-.012-.101-.012z" class="a"/><path d="M611.179 55.189l9.561-6.771c.025 0 .063.012.088.012l-9.56 6.771c-.025 0-.051-.012-.089-.012z" class="b"/><path d="M611.28 55.2l9.56-6.771c.038 0 .064 0 .101.012l-9.56 6.771c-.038-.012-.076-.012-.101-.012z" class="c"/><path d="M611.369 55.2l9.56-6.771h.101l-9.56 6.771a.15.15 0 0 1-.101 0z" class="d"/><path d="M611.47 55.212l9.561-6.771h.101l-9.561 6.771h-.101z" class="e"/><path d="M611.571 55.2l9.56-6.771c.038 0 .076 0 .101-.012l-9.56 6.771c-.025.012-.063.012-.101.012z" class="f"/><path d="M611.671 55.2l9.561-6.771a.38.38 0 0 0 .113-.023l-9.56 6.771c-.025.012-.076.012-.114.023z" class="g"/><path d="M611.798 55.177l9.561-6.771.126-.035-9.56 6.771c-.038.023-.089.023-.127.035z" class="h"/><path d="M611.924 55.142l9.561-6.771c.05-.012.101-.035.151-.047l-9.56 6.771c-.051.023-.101.035-.152.047z" class="H"/><path d="M609.31 51.217l9.561-6.771c-.114.082-.215.176-.291.293l-9.56 6.771a1.12 1.12 0 0 1 .29-.293z" class="i"/><path d="M608.992 51.51l9.561-6.771a.84.84 0 0 0-.089.141l-9.56 6.771.088-.141z" class="H"/><path d="M608.908 51.639l9.561-6.771c-.025.035-.038.07-.063.117l-9.561 6.771c.025-.035.051-.07.063-.117z" class="h"/><path d="M608.86 51.756l9.56-6.771-.038.105-9.56 6.771c0-.035.025-.07.038-.105z" class="g"/><path d="M608.813 51.862l9.56-6.771c-.012.035-.025.07-.038.094l-9.56 6.771c.025-.023.025-.059.038-.094z" class="f"/><path d="M608.788 51.967l9.561-6.771c-.013.035-.013.059-.025.094l-9.561 6.771c0-.035.013-.07.025-.094z" class="e"/><path d="M608.764 52.061l9.561-6.771c-.013.035-.013.059-.013.094l-9.56 6.771c0-.035 0-.07.012-.094z" class="d"/><path d="M608.741 52.143l9.56-6.771c0 .035-.013.059-.013.094l-9.56 6.771c.013-.023.013-.059.013-.094z" class="c"/><path d="M608.729 52.236l9.56-6.771c0 .035 0 .059-.012.094l-9.561 6.771c.013-.035.013-.059.013-.094z" class="b"/><path d="M608.729 52.33l9.56-6.771v.094l-9.56 6.771c-.013-.035 0-.07 0-.094z" class="a"/><path d="M608.72 52.424l9.561-6.771v.094l-9.561 6.771v-.094z" class="Z"/><path d="M608.716 52.506l9.561-6.771v.094l-9.561 6.771c.013-.035 0-.059 0-.094z" class="Y"/><path d="M608.728 52.6l9.56-6.771c0 .035 0 .059.013.094l-9.56 6.771c-.013-.035-.013-.07-.013-.094z" class="X"/><path d="M608.728 52.693l9.56-6.771c0 .035.013.059.013.094l-9.56 6.771c0-.035 0-.07-.013-.094z" class="W"/><path d="M608.74 52.775l9.56-6.771c0 .035.013.059.013.094l-9.561 6.771c0-.023 0-.059-.012-.094z" class="V"/><path d="M608.763 52.881l9.561-6.771c.012.035.012.07.025.094l-9.561 6.771c-.012-.035-.025-.07-.025-.094z" class="U"/><path d="M608.775 52.974l9.56-6.771c.013.035.013.07.026.105L608.8 53.08c0-.035-.012-.07-.025-.105z" class="T"/><path d="M608.81 53.08l9.561-6.771.037.105-9.56 6.771c-.025-.035-.038-.07-.038-.105z" class="S"/><path d="M608.833 53.185l9.561-6.771.038.117-9.561 6.771c-.012-.047-.025-.082-.038-.117z" class="R"/><path d="M608.869 53.291l9.56-6.771c.013.035.038.082.051.117l-9.561 6.771c-.013-.035-.025-.07-.05-.117z" class="Q"/><path d="M608.916 53.42l9.56-6.771c.025.047.038.094.063.141l-9.56 6.771c-.013-.047-.038-.094-.063-.141z" class="P"/><path d="M609.007 53.56l9.561-6.771c.025.059.063.105.088.164l-9.56 6.771c-.038-.059-.063-.117-.089-.164z" class="N"/><use xlink:href="#K" class="M"/><path d="M609.31 51.215l9.56-6.771c.089-.059.177-.117.291-.152l-9.561 6.771c-.113.047-.202.094-.29.152z" fill="#606265"/><path d="M609.601 51.065l9.56-6.771c.013 0 .013-.012.026-.012l-9.561 6.771c-.013 0-.025.012-.025.012z" class="o"/><path d="M612.08 55.095l9.56-6.771 12.124-4.721-9.56 6.771z" fill="#855959"/><path d="M624.2 50.374l9.573-6.771-9.561 6.771z" class="H"/><path d="M624.21 50.374l9.56-6.771a1.14 1.14 0 0 0 .291-.164L624.5 50.21a1.14 1.14 0 0 1-.29.164z" class="i"/><path d="M609.62 51.053l9.561-6.771 12.124-4.733-9.561 6.771z" fill="#626567"/><path d="M621.75 46.32l9.561-6.771c.05-.023.101-.035.139-.047l-9.561 6.771c-.05.012-.101.035-.139.047z" class="o"/><path d="M621.879 46.273l9.56-6.771.127-.035-9.561 6.771-.126.035z" fill="#686a6d"/><path d="M622.015 46.25l9.56-6.771c.038-.012.076-.012.114-.023l-9.561 6.771c-.025.012-.075.012-.113.023z" fill="#6b6e71"/><path d="M622.142 46.227l9.56-6.771c.038 0 .076-.012.101-.012l-9.56 6.771c-.038.012-.076.012-.101.012z" fill="#6f7174"/><path d="M622.24 46.215l9.561-6.771h.101l-9.561 6.771h-.101z" fill="#737578"/><path d="M622.34 46.215l9.56-6.771h.101l-9.56 6.771h-.101z" fill="#76797c"/><path d="M622.444 46.215l9.561-6.771c.038 0 .063 0 .101.012l-9.561 6.771c-.037 0-.075-.012-.101-.012z" fill="#7a7d80"/><path d="M622.546 46.227l9.56-6.771c.026 0 .063.012.089.012l-9.561 6.771c-.025-.012-.063-.012-.088-.012z" fill="#7e8184"/><g fill="#828488"><path d="M622.63 46.238l9.573-6.771-9.561 6.771z"/><path d="M622.646 46.238l9.561-6.771c.025 0 .063.012.088.012l-9.56 6.771c-.038 0-.063-.012-.089-.012z"/></g><path d="M622.717 46.25l9.56-6.771c.025 0 .063.012.088.023l-9.56 6.771c-.025-.012-.05-.012-.088-.023z" fill="#85888c"/><path d="M622.81 46.273l9.561-6.771c.025.012.063.012.088.023l-9.56 6.771c-.025-.012-.063-.023-.089-.023z" fill="#898c90"/><path d="M622.912 46.297l9.56-6.771c.026.012.064.012.089.023L623 46.32c-.025-.012-.05-.023-.088-.023z" fill="#8d9093"/><path d="M623 46.32l9.56-6.771c.025.012.063.023.089.035l-9.561 6.771c-.025-.012-.05-.023-.088-.035z" fill="#909397"/><path d="M623.101 46.355l9.561-6.771.101.035-9.561 6.771-.101-.035z" fill="#94979b"/><path d="M623.202 46.391l9.56-6.771c.038.012.063.023.101.047l-9.56 6.771c-.038-.023-.076-.035-.101-.047z" fill="#989b9f"/><path d="M623.291 46.426l9.56-6.771c.038.012.063.035.101.047l-9.56 6.771c-.025-.012-.063-.023-.101-.047z" fill="#9b9fa3"/><path d="M623.391 46.473l9.561-6.771c.038.012.075.035.101.059l-9.561 6.771c-.025-.023-.063-.035-.101-.059z" fill="#9fa3a7"/><path d="M623.506 46.531l9.56-6.771c.038.023.076.047.114.059l-9.561 6.771c-.038-.023-.076-.035-.113-.059z" fill="#a3a6ab"/><path d="M623.619 46.59l9.56-6.771.114.07-9.561 6.771-.113-.07z" fill="#a7aaaf"/><path d="M623.733 46.672l9.56-6.771c.038.023.089.059.127.094l-9.561 6.771a.5.5 0 0 0-.126-.094z" fill="#aaaeb2"/><path d="M623.872 46.754l9.56-6.771c.051.035.101.082.152.117l-9.561 6.771c-.05-.035-.101-.07-.151-.117z" fill="#aeb2b6"/><path d="M624.023 46.883l9.56-6.771c.076.059.139.129.215.187l-9.56 6.771-.215-.187z" fill="#b2b5ba"/><path d="M624.225 47.07l9.56-6.771c.127.117.24.258.341.398l-9.56 6.771a3.45 3.45 0 0 0-.341-.398z" fill="#b5b9be"/><path d="M624.566 47.468l9.56-6.771.139.211.013.012-9.561 6.771-.012-.012c-.038-.07-.089-.141-.139-.211z" fill="#b2b5ba"/><path d="M624.718 47.691l9.56-6.771c.038.059.064.117.089.164l-9.561 6.771-.088-.164z" fill="#aeb2b6"/><path d="M624.806 47.855l9.56-6.771a.62.62 0 0 1 .063.141l-9.56 6.771c-.013-.047-.038-.094-.063-.141z" fill="#aaaeb2"/><path d="M624.882 47.996l9.56-6.771c.013.047.038.082.051.129l-9.56 6.771c-.013-.035-.038-.082-.051-.129z" fill="#a7aaaf"/><path d="M624.933 48.124l9.56-6.771.038.117-9.56 6.771-.038-.117z" fill="#a3a6ab"/><path d="M624.97 48.242l9.56-6.771.038.105-9.56 6.771-.038-.105z" fill="#9fa3a7"/><path d="M625.008 48.347l9.56-6.771c.013.035.013.07.026.105l-9.561 6.771c-.012-.035-.012-.07-.025-.105z" fill="#9b9fa3"/><path d="M625.033 48.452l9.561-6.771c.012.035.012.07.025.094l-9.56 6.771c-.013-.023-.013-.059-.026-.094z" fill="#989b9f"/><path d="M625.059 48.546l9.56-6.771c.013.035.013.059.013.094l-9.561 6.771c0-.023-.012-.059-.012-.094z" fill="#94979b"/><path d="M625.071 48.64l9.561-6.771c0 .035.012.059.012.094l-9.56 6.771c0-.023-.013-.059-.013-.094z" fill="#909397"/><path d="M625.084 48.734l9.561-6.771c0 .035 0 .059.012.094l-9.56 6.771c-.013-.023-.013-.059-.013-.094z" fill="#8d9093"/><path d="M625.1 48.827l9.56-6.771v.094l-9.56 6.771v-.094z" fill="#898c90"/><path d="M625.1 48.921l9.56-6.771v.094l-9.56 6.771v-.094z" fill="#85888c"/><path d="M625.1 49.015l9.56-6.771v.094l-9.56 6.771v-.094z" fill="#828488"/><path d="M625.097 49.097l9.56-6.771c0 .035 0 .059-.012.094l-9.561 6.771c0-.035.013-.059.013-.094z" fill="#7e8184"/><path d="M625.084 49.191l9.56-6.771c0 .035-.012.059-.012.094l-9.561 6.771c0-.035.013-.059.013-.094z" fill="#7a7d80"/><path d="M625.071 49.284l9.561-6.771c0 .035-.013.059-.013.094l-9.56 6.771c0-.035.012-.07.012-.094z" fill="#76797c"/><path d="M625.059 49.378l9.56-6.771c-.013.035-.013.059-.025.094l-9.561 6.771c0-.035.013-.07.026-.094z" fill="#737578"/><path d="M625.033 49.472l9.561-6.771-.038.094-9.561 6.771.038-.094z" fill="#6f7174"/><path d="M624.995 49.565l9.56-6.771-.037.105-9.561 6.771.038-.105z" fill="#6b6e71"/><path d="M624.958 49.671l9.56-6.771c-.012.035-.038.082-.063.117l-9.56 6.771c.025-.035.038-.082.063-.117z" fill="#686a6d"/><path d="M624.894 49.788l9.561-6.771c-.026.047-.051.094-.089.141l-9.56 6.771c.025-.047.063-.094.088-.141z" class="o"/><path d="M624.806 49.917l9.561-6.771c-.089.105-.177.211-.303.293l-9.561 6.771c.114-.082.215-.176.303-.293z" fill="#606265"/><path d="M622.647 46.238c.77.105 1.578.644 2.071 1.441.669 1.113.455 2.32-.505 2.694l-12.124 4.721c-.278.105-.581.141-.897.094-.77-.105-1.579-.644-2.059-1.429-.682-1.125-.454-2.331.506-2.694l12.124-4.733c.252-.117.568-.141.884-.094z" fill="#b9bdc2"/><path d="m693.04 255.4 9.56-6.771 77.986-30.365-9.56 6.771z" fill="#855959"/><path d="m771.028 225.032 9.561-6.771c.012-.012.025-.012.05-.023l-9.56 6.771c-.025.011-.038.011-.051.023z" class="H"/><path d="m771.064 225.009 9.56-6.771c.429-.176.821-.387 1.175-.633l-9.561 6.771c-.353.246-.745.457-1.174.633z" class="i"/><g class="E"><path d="m780.4 226.379 9.56-6.771c.025.047.063.094.088.141l-9.56 6.771c-.025-.047-.051-.094-.088-.141z"/><path d="M780.488 226.52l9.561-6.771.454.832-9.56 6.771-.455-.832z"/><path d="M780.955 227.352l9.56-6.771.341.702-9.56 6.772-.341-.703z"/><path d="M781.284 228.055l9.56-6.772.253.61-9.56 6.771-.253-.609z"/><path d="M781.536 228.664l9.56-6.771.202.574-9.56 6.771c-.051-.199-.126-.387-.202-.574z"/><path d="M781.751 229.226l9.56-6.771.164.539-9.56 6.771-.164-.539z"/><path d="M781.915 229.765l9.56-6.771.139.504-9.56 6.771-.139-.504z"/><path d="M782.05 230.27l9.561-6.771.113.492-9.56 6.771-.114-.492z"/><path d="M782.155 230.761l9.56-6.771.089.468-9.561 6.771-.088-.468zm.089.48l9.56-6.771.063.468-9.56 6.772-.063-.469z"/><path d="M782.306 231.698l9.561-6.771.037.457-9.56 6.771-.038-.457z"/><path d="M782.344 232.155l9.561-6.771.025.445-9.56 6.771-.026-.445z"/><path d="M782.37 232.61l9.56-6.771v.445l-9.56 6.771v-.445z"/><path d="M782.37 233.057l9.56-6.771c0 .152-.013.304-.025.445l-9.561 6.771.026-.445z"/><path d="M782.344 233.502l9.56-6.771-.037.445-9.561 6.771.038-.445z"/><path d="M782.307 233.947l9.56-6.771c-.012.152-.038.305-.063.457l-9.56 6.771.063-.457z"/><path d="M782.243 234.404l9.561-6.771-.089.469-9.56 6.771.088-.469z"/><path d="M782.155 234.861l9.561-6.771-.127.468-9.56 6.772.126-.469zm-.126.48l9.56-6.771-.164.492-9.56 6.771.164-.492z"/><path d="M781.865 235.833l9.56-6.771-.214.527-9.561 6.772.215-.528z"/><path d="M781.65 236.361l9.56-6.772c-.088.199-.189.387-.29.574l-9.561 6.772.291-.574z"/><path d="M781.346 236.935l9.561-6.772-.442.68-9.561 6.771c.164-.222.316-.445.442-.679z"/><path d="M780.905 237.602l9.56-6.771a6.97 6.97 0 0 1-1.477 1.453l-9.561 6.771c.569-.41 1.074-.89 1.478-1.453z"/></g><path d="M773.024 214.231l9.56-6.771a.52.52 0 0 1 .064.117l-9.561 6.771c-.013-.047-.038-.082-.063-.117z" class="p"/><path d="M773.1 214.348l9.561-6.771.366.668-9.561 6.771c-.113-.234-.24-.445-.366-.668z" fill="#153f66"/><path d="M773.466 215.004l9.561-6.771c.101.187.189.375.265.562l-9.561 6.771-.265-.562z" fill="#143e63"/><path d="M773.731 215.566l9.56-6.771.202.492-9.56 6.772-.202-.493z" fill="#143c61"/><path d="M773.933 216.059l9.56-6.772.164.457-9.56 6.771-.164-.456z" fill="#133b5f"/><path d="M774.098 216.515l9.56-6.771.139.434-9.56 6.771-.139-.434z" fill="#133a5d"/><path d="M774.237 216.949l9.56-6.771.101.398-9.56 6.771-.101-.398z" fill="#12385b"/><path d="M774.337 217.347l9.56-6.771c.038.129.064.258.089.398l-9.561 6.771-.088-.398z" fill="#123759"/><path d="M774.426 217.745l9.56-6.771.063.375-9.56 6.771c-.013-.128-.038-.257-.063-.375z" fill="#123656"/><path d="M774.489 218.12l9.561-6.771c.025.129.038.246.05.375l-9.56 6.771-.051-.375z" fill="#113454"/><path d="M774.539 218.495l9.561-6.771.037.363-9.56 6.771-.038-.363z" fill="#113352"/><path d="M774.577 218.858l9.561-6.771a3.67 3.67 0 0 1 .012.363l-9.56 6.772-.013-.364z" fill="#103250"/><path d="M774.59 219.21l9.56-6.771v.351l-9.56 6.771a1.58 1.58 0 0 0 0-.351z" fill="#10304e"/><path d="M774.59 219.573l9.56-6.771-.012.363-9.561 6.771c.013-.129.013-.246.013-.363z" class="q"/><path d="M774.577 219.924l9.56-6.771-.037.363-9.561 6.772a1.72 1.72 0 0 0 .038-.364z" fill="#0f2e49"/><path d="M774.553 220.288l9.56-6.772-.051.364-9.56 6.771.051-.363z" fill="#0f2c47"/><path d="M774.489 220.651l9.56-6.771-.075.374-9.561 6.772c.038-.129.063-.246.076-.375z" fill="#0e2b45"/><path d="M774.426 221.026l9.561-6.772a3.42 3.42 0 0 1-.101.375l-9.561 6.772.101-.375z" fill="#0e2a43"/><path d="M774.325 221.401l9.56-6.772-.126.399-9.561 6.771.127-.398z" class="m"/><path d="M774.186 221.787l9.56-6.771c-.05.14-.113.281-.177.422l-9.56 6.771a2.19 2.19 0 0 0 .177-.422z" fill="#0d273f"/><path d="M774.022 222.221l9.56-6.772-.24.457-9.56 6.771.24-.456z" fill="#0c263c"/><path d="M773.782 222.678l9.56-6.772-.353.539-9.561 6.771.354-.538z" class="j"/><path d="m773.428 223.216 9.561-6.771c-.329.445-.72.832-1.188 1.16l-9.56 6.771c.455-.328.859-.714 1.187-1.16z" fill="#0b2338"/><path d="m780.4 226.379c3.397 5.588 2.273 11.645-2.514 13.496l-74.5 29.018c-1.389.539-2.93.668-4.509.445-3.864-.55-7.906-3.233-10.318-7.204l-7.312-12.032c1.932 3.105 5.127 5.202 8.184 5.635 1.263.176 2.488.07 3.599-.351l77.973-30.366c3.827-1.487 4.724-6.326 2.009-10.801l-50.429-83z" class="C"/><path d="m722.6 131.23 9.56-6.771 50.429 83.001-9.56 6.771z" fill="#16426a"/><path d="m722.6 131.23 9.56-6.771 57.805 95.149-9.561 6.771z" class="E"/><path d="M582.35 73.194l9.56-6.771 77.974-30.377-9.561 6.771z" class="j"/><path d="M575.48 58.34l9.56-6.771 74.501-29.018-9.561 6.771z" class="E"/><path d="M660.32 42.818l9.56-6.771.594-.199-9.561 6.771-.593.199z" class="j"/><path d="M660.913 42.618l9.561-6.771.53-.117-9.56 6.771-.531.117z" fill="#0c263c"/><path d="M661.444 42.501l9.56-6.771.467-.07-9.56 6.771a2.97 2.97 0 0 0-.467.07z" fill="#0d273f"/><path d="M661.911 42.431l9.561-6.771.429-.035-9.56 6.771a2.55 2.55 0 0 0-.43.035z" class="m"/><path d="M662.341 42.396l9.56-6.771c.139-.012.265-.012.404-.012l-9.56 6.771-.404.012z" fill="#0e2a43"/><path d="M662.745 42.384l9.56-6.771.392.012-9.561 6.771c-.126-.012-.265-.012-.391-.012z" fill="#0e2b45"/><path d="M663.136 42.384l9.561-6.771.379.023-9.561 6.771c-.126 0-.252-.012-.379-.023z" fill="#0f2c47"/><path d="M663.515 42.419l9.561-6.771.378.047-9.56 6.771c-.126-.023-.253-.035-.379-.047z" fill="#0f2e49"/><path d="M663.894 42.454l9.56-6.771h.026l-9.561 6.771c-.012.012-.012.012-.025 0z" class="q"/><path d="M672.13 48.16l9.56-6.771 50.467 83.071-9.561 6.771z" class="E"/><path d="M663.919 42.466l9.561-6.771c.113.012.227.035.341.059l-9.561 6.771-.341-.059z" class="q"/><path d="M664.26 42.525l9.56-6.771.367.07-9.561 6.771-.366-.07z" fill="#10304e"/><path d="M664.626 42.595l9.56-6.771c.127.023.24.059.367.094l-9.561 6.771a3.29 3.29 0 0 0-.366-.094z" fill="#103250"/><path d="M665.005 42.689l9.56-6.771.367.105-9.561 6.771-.366-.105z" fill="#113352"/><path d="M665.372 42.794l9.56-6.771a4.69 4.69 0 0 1 .379.129l-9.56 6.771-.379-.129z" fill="#113454"/><path d="M665.751 42.911l9.56-6.771.379.141-9.56 6.771-.379-.141z" fill="#123656"/><path d="M666.13 43.064l9.56-6.771.391.164-9.56 6.771-.391-.164z" fill="#123759"/><path d="M666.521 43.216l9.56-6.771.405.187-9.561 6.771-.404-.187z" fill="#12385b"/><path d="M666.925 43.403l9.561-6.771.416.211-9.56 6.771-.417-.211z" fill="#133a5d"/><path d="M667.342 43.626l9.56-6.771.442.246-9.56 6.771-.442-.246z" fill="#133b5f"/><path d="M667.783 43.872l9.561-6.771.48.293-9.561 6.771-.48-.293z" fill="#143c61"/><path d="M668.264 44.176l9.56-6.771.518.363-9.561 6.771c-.164-.129-.341-.246-.517-.363z" fill="#143e63"/><path d="M668.781 44.54l9.56-6.771.607.469-9.561 6.771c-.189-.164-.391-.316-.606-.469z" fill="#153f66"/><path d="M669.387 45.008l9.561-6.771.846.773-9.561 6.771a10.21 10.21 0 0 0-.846-.773z" class="p"/><path d="M670.246 45.781l9.561-6.771a13.44 13.44 0 0 1 1.364 1.605l-9.561 6.771a13.25 13.25 0 0 0-1.364-1.605z" fill="#16426a"/><path d="M671.61 47.386l9.561-6.771.517.773-9.56 6.771-.518-.773z" class="p"/><path d="M663.919 42.466c-1.263-.176-2.488-.082-3.599.351l-77.974 30.365c-3.725 1.453-4.685 6.092-2.21 10.462l-7.173-11.809c-3.398-5.588-2.274-11.645 2.513-13.507l74.5-29.006c1.39-.539 2.93-.668 4.496-.445 3.852.551 7.906 3.233 10.319 7.193l7.35 12.09c-1.945-3.14-5.153-5.26-8.222-5.693zM624.2 50.374c.96-.375 1.174-1.582.505-2.694-.48-.797-1.301-1.324-2.071-1.441a1.77 1.77 0 0 0-.897.082l-12.124 4.733c-.96.363-1.187 1.582-.505 2.694.48.785 1.288 1.324 2.058 1.429.316.047.619.023.897-.094z" class="C"/><g class="E"><path d="M664.79 36.07l9.561-6.771 7.337 12.09-9.56 6.771zm-14.813-6.748l9.56-6.771c.24-.094.492-.176.758-.246l-9.561 6.771c-.265.07-.518.152-.757.246z"/><path d="M650.734 29.076l9.56-6.771.657-.152-9.56 6.771c-.228.035-.442.094-.657.152z"/><path d="M651.378 28.924l9.561-6.771.581-.094-9.561 6.771-.581.094z"/><path d="M651.959 28.83l9.561-6.771.53-.047-9.56 6.771-.531.047z"/><path d="M652.502 28.783l9.561-6.771.505-.012-9.561 6.771-.505.012z"/><path d="M653.008 28.771l9.56-6.771.493.012-9.561 6.771-.492-.012z"/><path d="M653.5 28.783l9.56-6.771.48.035-9.56 6.771-.48-.035z"/><path d="M653.967 28.818l9.561-6.771.467.058-9.56 6.771-.468-.059z"/><path d="M654.434 28.877l9.56-6.771h.038l.43.07-9.561 6.771-.429-.07h-.038z"/><path d="M654.902 28.947l9.56-6.771c.152.023.303.059.455.094l-9.548 6.771-.467-.094z"/><path d="M655.369 29.041l9.561-6.771.467.117-9.56 6.771-.468-.117z"/><path d="M655.824 29.158l9.561-6.771.467.129-9.561 6.771-.467-.129z"/><path d="M656.291 29.287l9.56-6.771.468.152-9.561 6.771c-.151-.059-.316-.105-.467-.152z"/><path d="M656.758 29.439l9.561-6.771.48.176-9.561 6.771-.48-.176z"/><path d="M657.238 29.615l9.56-6.771.493.199-9.561 6.771-.492-.199zm.493.211l9.56-6.771.505.234-9.56 6.771-.505-.234z"/><path d="M658.236 30.06l9.56-6.771.53.27-9.56 6.771-.53-.269z"/><path d="M658.767 30.329l9.56-6.771.556.316-9.561 6.771-.555-.316z"/><path d="M659.322 30.646l9.561-6.771.593.375-9.56 6.771-.594-.375z"/><path d="M659.916 31.021l9.56-6.771.657.457-9.561 6.771-.656-.457z"/><path d="M660.56 31.466l9.56-6.771.758.586-9.56 6.771-.758-.586zm.758.597l9.56-6.771 1.061.961-9.561 6.771-1.06-.961z"/><path d="M662.379 33.024l9.56-6.771c.619.609 1.2 1.289 1.718 2.003l-9.561 6.771a15.91 15.91 0 0 0-1.717-2.003z"/><path d="M664.096 35.027l9.56-6.771.695 1.043-9.56 6.771-.695-1.043z"/></g><g mask="url(#C)"><path d="M113.98 343.03l40.38-72.847a5.3 5.3 0 0 1 7.205-2.066l103.34 57.28a5.3 5.3 0 0 1 2.066 7.205l-40.38 72.847z" class="I J"/><path d="M155.023 321.456l70.492-53.119a3.3 3.3 0 0 1 4.621.65l67.89 90.092-73.127 55.105z" class="I J"/><use xlink:href="#L" class="B F"/><rect transform="matrix(.79864 -.60182 .60182 .79864 -161.14 163.97)" x="164.46" y="322.78" width="78.09" height="11.156" rx="2" class="F"/><path d="M113.99 343.09l48.604-74.843a5.3 5.3 0 0 1 7.331-1.558l99.09 64.349a5.3 5.3 0 0 1 1.558 7.332l-48.603 74.842z" class="D I J"/><path d="m113.02 343.3 4.05-6.238 109.15 70.885-4.051 6.238z" class="F"/><rect transform="matrix(.54464 -.83867 .83867 .54464 -209.5 275.76)" x="149.19" y="330.8" width="34.955" height="23.799" rx="1" mask="url(#D)" stroke-width="2.8" class="I"/><use xlink:href="#M" class="B F"/></g><g mask="url(#E)"><path d="M113.03 343.3l40.719-73.459c1.606-2.898 5.258-3.945 8.157-2.339l103.34 57.281a6 6 0 0 1 2.339 8.156l-40.719 73.46z" class="D"/><path d="M154.043 321.319l71.051-53.541a4 4 0 0 1 5.601.788l68.311 90.651-74.245 55.947z" class="C"/><path d="M261.235 363.467c-.371-.492-.273-1.191.219-1.562l13.067-9.847c.492-.371 1.192-.272 1.563.22s.272 1.191-.22 1.562l-13.067 9.847c-.492.371-1.192.272-1.562-.22zm3.58 4.752c-.371-.492-.272-1.191.22-1.562l13.067-9.847c.492-.371 1.191-.273 1.562.22s.273 1.191-.219 1.562l-13.067 9.847a1.12 1.12 0 0 1-1.563-.22zm3.8 3.189c-.492.371-.59 1.071-.219 1.563s1.07.59 1.562.219l19.007-14.322a1.12 1.12 0 0 0 .22-1.563c-.371-.492-1.071-.59-1.563-.219zm-20.205 1.723l-3.212 2.421 2.421 3.213 3.212-2.421zm1.617 3.1l-2.295 1.729-1.73-2.295 2.295-1.729zm8.743 3.485l-.459.346.692.918 3.901-2.94-.346-.459-3.442 2.594zm-11.963-3.938l1.377-1.037 1.038 1.377-1.377 1.037zm6 9.871l3.212-2.421-2.421-3.212-3.212 2.421zm-1.617-3.099l2.295-1.73 1.729 2.295-2.294 1.73zm.805.113l1.377-1.038 1.037 1.377-1.376 1.038zm.087-12.299l2.421 3.213 3.213-2.421-2.421-3.213zm4.829.679l-2.295 1.729-1.729-2.295 2.295-1.729zm-3.219-.453l1.377-1.037 1.037 1.377-1.377 1.037zm4.37 1.025l-.918.692.692.917.918-.691zm-8.714 9.445l.918-.692.692.918-.918.692zm3.436-5.468l-1.836 1.384.346.459 2.294-1.73-1.037-1.376.459-.346-.692-.918-1.377 1.037-.691-.918.458-.345.346.458 1.607-1.21-1.038-1.377-.459.346.692.918-.689.519-.691-.918-.23.173-1.147.864 1.729 2.295.918-.692.346.459-.918.692.346.459.918-.692zm-2.176 3.798l-.917.692-.692-.918-.689.519-.346-.459 1.148-.865.692.918.459-.346-.519-.688.459-.346.519.688.688-.518.692.917.346.459 1.377-1.037.345.459-1.836 1.383-.345-.459-.918.692-.346-.459.918-.692-.346-.459-.23.173zm6.556 1.537l-.865-1.148-.918.692-.692-.918-.459.346 1.038 1.377.918-.692.519.689-.918.691.345.459.918-.691.346.459 1.148-.865-.346-.459-.689.519zm-2.082-5.627l.918-.692-.346-.459-.459.346-.346-.459 1.606-1.211.346.459-.688.519.346.459.459-.346.346.459-2.295 1.73-1.211-1.607.459-.346zm3.571 3.785l.689-.519.346.459.918-.692-1.211-1.606-.918.691.519.689-.688.519-.519-.689-.459.346.519.689-.459.345-1.384-1.835-.459.345-.346-.459-.459.346-1.037-1.377-1.607 1.211.692.918.459-.346-.346-.459.689-.519.691.918.692.918.918-.692 1.384 1.836.459-.346.459-.345zm-.182-4.54l.688-.519-.519-.688.459-.346 2.248 2.983-.688.519.346.459.688-.519.346.459-1.147.865-1.038-1.377.689-.519-1.038-1.377-.688.519.518.688-.459.346-.518-.688-.689.518.692.918-1.377 1.038-1.038-1.377.459-.346.692.918.459-.346-.692-.918 1.148-.864zm-40.002 21.148c-.37-.492-.272-1.191.22-1.562l13.067-9.847c.492-.371 1.192-.272 1.562.22s.273 1.191-.219 1.562l-13.067 9.847a1.12 1.12 0 0 1-1.563-.22zm3.581 4.752c-.371-.492-.272-1.192.22-1.562l13.067-9.847c.492-.371 1.191-.273 1.562.219s.273 1.192-.22 1.563l-13.067 9.846c-.492.371-1.191.273-1.562-.219zm3.8 3.189c-.492.371-.59 1.07-.219 1.563s1.07.59 1.562.219l19.007-14.322c.492-.371.59-1.071.219-1.563s-1.07-.59-1.562-.219z" class="B O"/><path d="M189.245 355.675a4 4 0 0 1 .787-5.602l55.977-42.181a4 4 0 0 1 5.602.787l22.935 30.436a4 4 0 0 1-.787 5.602l-55.977 42.182a4 4 0 0 1-5.602-.788z" fill="#cc4e00" fill-opacity=".1"/><path d="M194.9 357.001a4 4 0 0 1 .787-5.602l50.038-37.706a4 4 0 0 1 5.601.788l1.004 1.332a4 4 0 0 1-.787 5.602l-50.037 37.706a4 4 0 0 1-5.602-.788z" class="C"/><g class="B"><path d="M198.811 352.304l.891-.671 2.685 3.564-.891.671zm-1.782 1.343l.891-.671 2.686 3.564-.891.671zm4.455-3.357l-.891.672 2.685 3.563.891-.671zm.891-.671l.891-.671 2.685 3.563-.891.672zm2.673-2.014l-.891.671 2.685 3.564.891-.671zm3.563-2.686l.891-.671 2.686 3.564-.891.671zm1.782-1.342l.891-.672 2.686 3.564-.891.671zm2.673-2.014l-.891.671 2.685 3.564.891-.672zm.891-.672l.891-.671 2.685 3.564-.891.671zm2.673-2.014l-.891.671 2.685 3.564.891-.671zm5.346-4.028l.89-.672 2.686 3.564-.891.672zm-1.782 1.343l.891-.672 2.685 3.564-.891.671zm4.454-3.357l-.891.671 2.686 3.564.891-.672zm.891-.672l.891-.671 2.686 3.564-.891.671zm2.673-2.014l-.891.672 2.686 3.563.89-.671zm3.564-2.685l.891-.672 2.685 3.564-.891.672zm1.782-1.343l.891-.671 2.685 3.563-.891.672zm2.673-2.014l-.891.671 2.685 3.564.891-.671zm.891-.672l.89-.671 2.686 3.564-.891.671zm2.672-2.014l-.891.672 2.686 3.563.891-.671z" class="K"/><path d="m218.64 339.691 1.782-1.343.447.594-1.782 1.343zm-11.582 8.727 1.781-1.342.448.594-1.782 1.342zm24.946-18.798-1.782 1.343.447.594 1.782-1.343z" class="O"/></g><path d="M202.956 367.692a4 4 0 0 1 .788-5.602l50.037-37.706a4 4 0 0 1 5.602.788l1.004 1.332a4 4 0 0 1-.788 5.602l-50.037 37.706a4 4 0 0 1-5.601-.788z" class="C"/><rect transform="matrix(.79864 -.60182 .60182 .79864 -178.37 197.37)" x="205.76" y="365.23" width="48.342" height="2.231" rx="1.116" class="O"/><path d="M211.013 378.383a4 4 0 0 1 .787-5.601l50.037-37.706a4 4 0 0 1 5.602.787l1.004 1.333a4 4 0 0 1-.787 5.601l-50.037 37.706a4 4 0 0 1-5.602-.787z" class="C"/><rect transform="matrix(.79864 -.60182 .60182 .79864 -183.18 204.37)" x="213.81" y="375.92" width="48.342" height="2.231" rx="1.116" class="O"/><use xlink:href="#L" class="B O"/><rect transform="matrix(.79864 -.60182 .60182 .79864 -161.14 163.97)" x="164.46" y="322.78" width="78.09" height="11.156" rx="4" fill="#cc4e00"/><path d="M113.02 343.3l48.985-75.43a6 6 0 0 1 8.299-1.764l99.09 64.349a6 6 0 0 1 1.764 8.3l-48.985 75.43z" class="G"/><path d="m113.02 343.3 4.05-6.238 109.15 70.885-4.051 6.238z" class="k"/><rect transform="matrix(.54464 -.83867 .83867 .54464 -209.5 275.76)" x="149.19" y="330.8" width="34.955" height="23.799" rx="1" class="k"/><use xlink:href="#M" class="B C"/></g><g mask="url(#F)"><path d="M758.491 322.231a4 4 0 0 1 5.349-1.841l61.118 29.809a4 4 0 0 1 1.842 5.348l-15.782 32.357a4 4 0 0 1-5.348 1.842l-39.656-19.342c-.76-.37-1.617-.491-2.449-.344l-17.836 3.15a1 1 0 0 1-1.072-1.423l4.21-8.633a1 1 0 0 0-.46-1.337l-3.855-1.881a4 4 0 0 1-1.842-5.348z" class="r"/><use xlink:href="#N" class="B G"/></g><g mask="url(#G)"><path d="M763.533 321.019l61.118 29.809a3.3 3.3 0 0 1 1.52 4.413l-15.782 32.356a3.3 3.3 0 0 1-4.412 1.52l-39.656-19.342a4.7 4.7 0 0 0-2.878-.404l-17.835 3.15a.3.3 0 0 1-.322-.427l4.21-8.633a1.7 1.7 0 0 0-.782-2.273l-3.855-1.881a3.3 3.3 0 0 1-1.52-4.412l15.781-32.357a3.3 3.3 0 0 1 4.413-1.519z" class="I J"/><use xlink:href="#N" class="B F"/></g><path d="m572 335.5-25.5-3c-1.667-3.833-1.765-12.021 11-11 12.5 1 15 9.5 14.5 14z" fill="#ffbe06"/><path d="M487.55 319.15a10 10 0 0 1 11.584-8.112l51.21 9.03-17.365 98.481-61.058-10.767z" class="L"/><path d="M430.63 370.85c.959-5.439 6.146-9.071 11.585-8.112l51.21 9.03-17.365 98.481-61.058-10.766z" class="D"/><path d="m557.5 321.5-7.5-1.5c-.833 5.5-2.7 15.6-1.5 10s6.5-8 9-8.5z" class="L"/><path d="m500.5 373.5-8.5-2c-.833 5.5-2.2 15.6-1 10s7-7.5 9.5-8z" class="D"/><path d="m500 373.5c-11.2 0-15 18.333-15.5 27.5l4.5 7.5h38.5l8.5-5c0-1.167.5-5.5 1.5-11-3 8.5-8.5 8.5-15 8.5s-9-2-11-12.5-6.5-14.5-11.5-15z" fill="#ffbe06"/><path d="M498.601 322.313a2 2 0 1 0-.626 3.951l35.557 5.631a2 2 0 0 0 2.288-1.662 2 2 0 0 0-1.662-2.288zm-56 50a2 2 0 1 0-.626 3.951l35.557 5.631a2 2 0 0 0 2.288-1.662 2 2 0 0 0-1.662-2.288zm51.712-38.338a2 2 0 0 1 2.288-1.662l35.557 5.632a2 2 0 0 1 1.662 2.288 2 2 0 0 1-2.288 1.662l-35.557-5.631a2 2 0 0 1-1.662-2.289zm-53.712 48.338a2 2 0 1 0-.626 3.951l35.557 5.631a2 2 0 0 0 2.288-1.662 2 2 0 0 0-1.662-2.288zm51.712-38.338a2 2 0 0 1 2.288-1.662l35.557 5.632a2 2 0 0 1 1.662 2.288 2 2 0 0 1-2.288 1.662l-35.557-5.631a2 2 0 0 1-1.662-2.289zm-53.712 48.338a2 2 0 1 0-.626 3.951l35.557 5.631a2 2 0 0 0 2.288-1.662 2 2 0 0 0-1.662-2.288zm51.712-38.338a2 2 0 0 1 2.288-1.662l35.557 5.632a2 2 0 0 1 1.662 2.288 2 2 0 0 1-2.288 1.662l-35.557-5.631a2 2 0 0 1-1.662-2.289zm.288 8.338a2 2 0 1 0-.626 3.951l25.68 4.067a2 2 0 0 0 .626-3.951z" class="B G"/><rect transform="matrix(.76604 .64279 -.64279 .76604 286.17 -176.77)" x="385.92" y="304.74" width="60" height="80.455" rx="6" class="k"/><circle transform="matrix(.76604 .64279 -.64279 .76604 311.41 -174.11)" cx="394.88" cy="340.74" r="15" fill="#f1faff"/><g class="B"><path d="M398.823 336.036a4.1 4.1 0 0 0-5.764.504 4.1 4.1 0 0 0 .505 5.764c1.727 1.449 4.313 1.224 5.763-.505s1.223-4.313-.504-5.763z" class="G"/><path d="M394.776 345.101l-4.178-3.506a4.09 4.09 0 0 0-5.765.506l-3.819 4.551c.938 2.089 2.351 4.005 4.222 5.575s4.004 2.629 6.224 3.191l3.819-4.552a4.09 4.09 0 0 0-.503-5.765z" class="r"/></g><g fill="#f1faff"><rect transform="matrix(.76604 .64279 -.64279 .76604 306.47 -151.87)" x="361.86" y="345.08" width="45" height="10.909" rx="2"/><rect transform="matrix(.76604 .64279 -.64279 .76604 312.07 -142.18)" x="351.35" y="357.61" width="45" height="10.909" rx="2"/></g><path d="M361.168 370.304l-3.134-2.63-2.629 3.134 3.133 2.63zm-7.06-3.254c-.726.865-2.016.978-2.882.252s-.978-2.016-.252-2.882 2.016-.978 2.882-.252.978 2.016.252 2.882zm9.117 10.136c-1.062-.387-1.609-1.561-1.223-2.622s1.56-1.609 2.622-1.223zm3.493.293l2.717-.238.238 2.717-2.717.238zm5.4 7.353c.866.727 2.156.614 2.882-.252s.613-2.155-.252-2.881-2.156-.614-2.882.252-.613 2.155.252 2.881z" class="B r"/><path d="M87.5 402.5l493-328 56.5 18 138 125-7.5 186.5H565l116.5-159-3-37.5-50 17.5-30.5-4.5-35 53.5-100.5 128.5h-22l92-102.5 26.5-60-43 22-164 140.5z" opacity=".3" class="C"/><use xlink:href="#J" class="k"/><g mask="url(#H)"><use xlink:href="#O" class="l"/><path d="M697.5 83l-14.33 31.06s-10.21 27.37-47.35 51.91-35.19 20.63-43.44 24.98c-8.25 4.34-10.64 5-15.86 9.12l-47.35 38.44c-3.26 3.48-34.1 43.66-34.1 43.66s-1.09 3.91 5 5c6.08 1.09 21.29-7.17 35.84-31.49l-12.38 43s-1.74 3.69 2.82 3.91 13.25-5 21.5-30.62c3.91-12.16 8.47-21.5 9.34-21.72s11.95-6.3 11.95-6.3l-21.29 47.35s-1.74 2.82.43 3.91 12.81 2.82 21.5-14.55 14.77-29.76 20.2-35.4c5.43-5.65 14.33-11.73 14.33-11.73l-8.07 45.18s3.3 2.17 6.77 0c3.48-2.17 10.43-9.12 16.29-36.05 4.13-5.65 11.08-11.08 17.81-13.03s41.48-9.12 53-21.72 16.94-26.06 19.55-32.8c2.61-6.73 13.03-29.97 20.63-39.31S697.5 83 697.5 83z" fill="#e5af90"/><use xlink:href="#P" class="B l"/></g><use xlink:href="#O" class="l"/><path d="M683.17 114.06s-10.21 27.37-47.35 51.91-35.19 20.63-43.44 24.98c-8.25 4.34-10.64 5-15.86 9.12l-47.35 38.44c-3.26 3.48-34.1 43.66-34.1 43.66s-1.09 3.91 5 5c6.08 1.09 21.29-7.17 35.84-31.49l-12.38 43s-1.74 3.69 2.82 3.91 13.25-5 21.5-30.62c3.91-12.16 8.47-21.5 9.34-21.72s11.95-6.3 11.95-6.3l-21.29 47.35s-1.74 2.82.43 3.91 12.81 2.82 21.5-14.55 14.77-29.76 20.2-35.4c5.43-5.65 14.33-11.73 14.33-11.73l-8.07 45.18s3.3 2.17 6.77 0c3.48-2.17 10.43-9.12 16.29-36.05 4.13-5.65 11.08-11.08 17.81-13.03s41.48-9.12 53-21.72 16.94-26.06 19.55-32.8c12.373-31.905-7.66-85.11-26.49-61.05z" fill="#e5af90"/><use xlink:href="#P" class="B l"/><g class="I J"><g stroke-linecap="round" stroke-linejoin="round"><path d="M812.5 344.5c11.5-4.333 39.8-8 61 12C887 348 912 340 930 349m-91 12.5c10 1.167 31.8 8.9 39 30.5m87-22c10 1.167 31.8 8.9 39 30.5m-95.5-3.5c5.667-6.333 22.4-18.2 44-15M79 363.14c9.395-3.618 32.291-6.911 48.71 8.863M119.5 381c-15.5-6-27-5.5-41.5 5.5-3-7.5-23.5-17-39.5 0-12.8 13.6-26.667 12-32 9.5"/></g><path d="M842.781 353.086c-.178.557-.819 1.076-2.029 1.301-1.179.219-2.727.115-4.348-.404s-2.942-1.334-3.774-2.198c-.855-.887-1.074-1.681-.896-2.238s.819-1.077 2.03-1.302c1.179-.219 2.727-.115 4.348.405s2.942 1.334 3.774 2.197c.854.887 1.074 1.681.895 2.239zm28.687 12.652c-.092.195-.316.405-.804.551s-1.163.2-2 .134c-1.669-.132-3.829-.732-6.064-1.793s-4.066-2.354-5.224-3.563c-.581-.606-.965-1.164-1.161-1.634s-.175-.776-.082-.971.316-.405.804-.55 1.163-.201 2-.135c1.669.133 3.828.733 6.064 1.794s4.066 2.353 5.224 3.562c.58.607.965 1.164 1.161 1.634s.174.777.082.971zm51.755 5.214c.424.952.167 2.26-.907 3.691-1.058 1.409-2.821 2.798-5.05 3.792s-4.441 1.374-6.196 1.219c-1.782-.158-2.927-.842-3.351-1.793s-.167-2.26.908-3.69c1.058-1.41 2.82-2.799 5.049-3.792s4.441-1.375 6.197-1.219c1.782.157 2.926.841 3.35 1.792z"/></g><rect transform="matrix(.98481 -.17365 .17365 .98481 -48.515 118.64)" x="653.78" y="336.59" width="74" height="102" rx="6" class="L"/><g class="G"><path d="M701.54 394.69l-1.598-9.06-4.924.868c1.025 4.084 3.764 6.952 6.522 8.192zm5.3-10.27l-4.924.868 1.597 9.061c2.167-2.109 3.761-5.741 3.327-9.929zm-7.24-.76l-1.598-9.06c-2.41 2.456-3.673 6.232-3.326 9.928zm8.86-1.56l3.939-.694c-1.331-5.249-6.133-8.87-11.428-8.952 3.568 1.808 6.447 5.464 7.489 9.646zm-8.49-7.84l1.597 9.06 4.924-.869c-.938-3.591-3.434-6.807-6.521-8.191zm8.84 9.81c.469 4.385-.905 8.689-3.738 11.626 4.948-1.888 8.123-6.916 7.678-12.321zm-15.76 2.78l-3.939.695c1.332 5.248 6.035 8.887 11.428 8.951-3.568-1.808-6.429-5.365-7.489-9.646zm-.35-1.97c-.451-4.287 1.003-8.707 3.738-11.626-4.947 1.888-8.122 6.915-7.579 12.303z"/><path d="M669.281 349.184a2 2 0 1 0 .695 3.939l47.27-8.335a2 2 0 0 0 1.623-2.317 2 2 0 0 0-2.317-1.622zm11.585 8.112a2 2 0 0 0-1.623 2.317 2 2 0 0 0 2.317 1.622l27.575-4.862a2 2 0 1 0-.695-3.939z" class="B"/></g></g><defs ><path id="J" d="M663.919 42.466c3.069.433 6.277 2.554 8.209 5.693l100.896 166.06c2.715 4.464 1.819 9.302-2.008 10.801l-77.973 30.366c-1.112.433-2.337.539-3.6.351-3.043-.433-6.239-2.53-8.184-5.635L580.338 83.984c-2.664-4.709-1.717-9.337 2.008-10.801l77.961-30.365c1.124-.433 2.349-.539 3.612-.351z"/><path id="K" d="M609.095 53.724l9.561-6.771c.012.012.012.023.025.035.038.07.088.141.139.199l-9.561 6.771-.139-.199c-.012-.012-.025-.023-.025-.035z"/><path id="L" d="M175.424 337.334c-.371-.492-.272-1.191.22-1.562l60.584-45.653c.492-.371 1.191-.273 1.562.219s.273 1.192-.22 1.563l-60.583 45.653c-.492.371-1.192.272-1.563-.22zm3.581 4.752c-.371-.492-.273-1.191.219-1.562l30.886-23.274c.492-.371 1.192-.273 1.563.219s.272 1.192-.22 1.562l-30.886 23.275c-.492.37-1.191.272-1.562-.22zm3.8 3.189a1.12 1.12 0 0 0-.22 1.563c.371.492 1.071.59 1.563.219l42.765-32.226c.492-.37.59-1.07.219-1.562s-1.07-.59-1.562-.219z"/><path id="M" d="M159.657 329.176c-.336.517-.189 1.208.328 1.543s1.208.189 1.543-.328l11.342-17.464c.335-.517.188-1.208-.328-1.543s-1.208-.189-1.543.328zm4.99 3.241c-.336.517-.189 1.207.328 1.543s1.207.189 1.543-.328l7.291-11.227c.336-.517.189-1.208-.328-1.543s-1.208-.189-1.543.328z"/><path id="N" d="M766.42 335.631a2 2 0 0 1 2.674-.921l41.344 20.165a2 2 0 1 1-1.753 3.596l-41.345-20.165a2 2 0 0 1-.92-2.675zm-4.384 8.988a2 2 0 0 1 2.674-.921l41.345 20.165a2 2 0 1 1-1.754 3.596l-41.344-20.165a2 2 0 0 1-.921-2.675zm-1.71 8.067a2 2 0 0 0-1.753 3.595l14.381 7.014a2 2 0 1 0 1.753-3.595z"/><path id="O" d="m605.63 241.33s-5.65 12.16-13.25 18.46-22.15 19.76-18.46 28.45 13.03 7.38 18.46 2.82 13.25-17.59 13.25-17.59l3.26-4.13s7.6-7.82 24.54-16.72 48-29.14 49.52-41.83-60.6 17.07-60.6 17.07z"/><path id="P" d="M606.26 230.68c.48.33 2.53-2.19 5.29-6.12l3.217-4.376 3.343-4.624 1.992-2.984 2.278-3.366 2.627-3.575 3.827-5.245.476-.64c.05-.054.091-.111.133-.167.051-.069.101-.137.167-.203l.43-.34 1.226-.877.354-.243c.93-.62 1.5-1.01 1.4-1.26-.26-.64-3.24.21-4.74 1.77-.285.307-.464.558-.634.796l-.206.284-.48.634-.21.276-.835 1.054-.455.566-.128.158-2.642 3.512c-3.51 5.37-6.11 8.62-7.66 10.53-.532.656-1.133 1.61-1.786 2.647l-1.264 1.963c-.448.662-.82 1.151-1.186 1.633-.525.69-1.037 1.364-1.744 2.507-2.38 3.84-3.23 5.39-2.79 5.69zm-28.72 2.43c-3.48 4.31-6.02 7.05-6.47 6.69-.41-.33.71-2.02 3.78-6.23.898-1.237 1.531-1.97 2.177-2.717a43.34 43.34 0 0 0 1.503-1.813c.576-.737 1.136-1.498 1.668-2.22.816-1.109 1.566-2.127 2.202-2.83 1.9-2.09 5.11-5.65 9.5-11.58 1.195-1.574 2.171-2.699 3.107-3.775 1.108-1.275 2.158-2.484 3.443-4.295 1.24-1.74 3.63-4.24 4.18-3.8.391.307-1.247 2.566-3.405 5.54l-.485.67c-1.679 2.321-3.365 4.334-4.892 6.157l-2.728 3.343-2.403 3.112h-.001l-2.976 3.878c-1.584 2.045-2.862 3.538-4.284 5.198l-3.916 4.672zm-38.354 16.899c-.952 1.982-1.507 3.141-1.786 3.051-.25-.08-.22-.82.21-2.37.47-1.55 1.24-3.96 3-7.22.92-1.63 1.71-2.68 2.58-3.59.519-.537 1.034-1.015 1.607-1.548l1.223-1.152 2.322-2.253c1.535-1.502 2.954-2.891 4.068-3.817l.381-.319c3.042-2.544 8.024-6.709 15.129-13.421 2.015-1.872 3.598-3.204 5.117-4.482 1.776-1.494 3.465-2.914 5.653-5.038 2.12-2.06 5.88-4.99 6.35-4.47.317.362-2.313 2.876-5.824 6.233l-1.136 1.087c-2.801 2.677-5.49 5.008-7.93 7.124l-4.62 4.086-4.975 4.59-3.965 3.69c-2.36 2.18-4.25 3.84-6.26 5.6l-3.16 2.8-.66.609h-.001v.001c-.935.855-1.932 1.767-2.819 2.92-1.905 2.535-3.134 5.07-4.065 6.989l-.425.871zm90.474-17.969c-.56.56-1.1.76-1.53.37-.38-.36-.32-.69 0-1.4.093-.203.213-.278.334-.354.088-.055.176-.111.256-.216s.136-.22.193-.333c.094-.185.18-.355.317-.417.4-.17 1.06-.48 1.57-1.43.151-.238.338-.353.517-.462.212-.13.414-.254.533-.568.11-.31.67-.46 1.18.02.364.346.196.717-.031 1.221l-.049.109c-.169.392-.461.624-.726.834-.174.138-.337.267-.444.426-.13.157-.216.288-.33.462-.096.145-.212.321-.39.568-.216.294-.451.453-.713.629-.21.142-.438.296-.687.541z"/></defs></svg>