<svg xmlns="http://www.w3.org/2000/svg" xmlns:xlink="http://www.w3.org/1999/xlink" width="1634" height="628" fill="none" xmlns:v="https://vecta.io/nano"><style><![CDATA[.B{fill:#051627}.C{fill:#034ea6}.D{opacity:.5}.E{fill-rule:evenodd}.F{stroke:#034ea6}.G{stroke-width:5}.H{fill:#0067b9}.I{fill:#ffd480}.J{fill:#69b3e7}]]></style><path d="M0 0h1633.8v628H0z" class="B"/><mask id="A" maskUnits="userSpaceOnUse" x="318" y="45" width="997" height="538" mask-type="alpha"><path d="M817.525 45.907c-274.708 0-498.534 69.312-498.534 144.075v195.523c0 107.239 169.769 196.588 320.103 196.588 106.689 0 142.633-167.546 177.976-167.546s70.978 167.546 177.701 167.546c142.239.026 320.039-108.278 320.039-187.642V189.982c0-74.763-222.63-144.075-497.285-144.075zM606.249 390.613c-84.61 0-153.209-34.338-153.209-76.6s68.599-76.601 153.209-76.601 153.201 34.339 153.201 76.601-68.591 76.6-153.201 76.6zm421.281 0c-84.592 0-153.183-34.338-153.183-76.6s68.608-76.601 153.183-76.601 153.23 34.339 153.23 76.601-68.55 76.6-153.23 76.6z" fill="#02346e"/></mask><g mask="url(#A)"><path d="M817.525 45.907c-274.708 0-498.534 69.312-498.534 144.075v195.523c0 107.239 169.769 196.588 320.103 196.588 106.689 0 142.633-167.546 177.976-167.546s70.978 167.546 177.701 167.546c142.239.026 320.039-108.278 320.039-187.642V189.982c0-74.763-222.63-144.075-497.285-144.075zM606.249 390.613c-84.61 0-153.209-34.338-153.209-76.6s68.599-76.601 153.209-76.601 153.201 34.339 153.201 76.601-68.591 76.6-153.201 76.6zm421.281 0c-84.592 0-153.183-34.338-153.183-76.6s68.608-76.601 153.183-76.601 153.23 34.339 153.23 76.601-68.55 76.6-153.23 76.6z" fill="#02346e"/><g class="D"><rect x="417.193" y="136.374" width="373.406" height="56" rx="28" class="F G"/><circle cx="468.148" cy="164.419" r="12.955" class="C"/><circle cx="514.118" cy="164.419" r="12.955" class="C"/><circle cx="560.088" cy="164.419" r="12.955" class="C"/><circle cx="606.058" cy="164.419" r="12.955" class="C"/><circle cx="652.357" cy="164.419" r="12.955" class="C"/><circle cx="698.357" cy="164.374" r="12.955" class="C"/></g><circle cx="733.387" cy="465.073" r="12.955" class="F G"/><circle cx="1296.11" cy="223.389" r="12.955" class="F G"/><circle cx="344.44" cy="257.292" r="12.955" class="F G"/><rect x="867.527" y="13.709" width="401.199" height="56" rx="28" class="D F G"/><rect opacity=".3" x="607.749" y="524.127" width="476.54" height="40.406" rx="20.203" class="C F G"/><path d="M731.822 381.14c1.059-.623 2.157-1.594 3.275-2.616l.543-.498h0l3.144-2.75c2.674-2.128 5.767-3.88 9.594-3.88 5.779 0 8.962 2.666 11.979 5.471l.556.52c2.811 2.633 5.755 5.393 10.635 5.186.038-.002.075-.006.111-.011l.185.006c2.052.058 4.754-.16 6.909-1.428 1.059-.623 2.158-1.594 3.275-2.616l.543-.497.001-.001h0 0 0c.982-.902 2.013-1.849 3.144-2.75 2.673-2.128 5.766-3.88 9.593-3.88 5.779 0 8.962 2.666 11.979 5.471l.556.52c2.811 2.633 5.755 5.393 10.636 5.186a1.59 1.59 0 0 0 .097-.009l.13.004c2.051.058 4.753-.16 6.908-1.428 1.059-.623 2.158-1.594 3.276-2.616l.543-.498c.982-.902 2.013-1.849 3.144-2.75 2.673-2.128 5.766-3.88 9.594-3.88 5.778 0 8.961 2.666 11.978 5.471l.557.52c2.81 2.633 5.755 5.393 10.635 5.186a1.52 1.52 0 0 0 .097-.009l.13.004c2.051.058 4.754-.16 6.909-1.428 1.059-.623 2.157-1.594 3.275-2.616l.543-.498c.982-.902 2.014-1.849 3.144-2.75 2.673-2.128 5.766-3.88 9.594-3.88 5.779 0 8.962 2.666 11.979 5.471l.556.52c2.811 2.633 5.755 5.393 10.635 5.186a1 1 0 1 0-.085-1.999c-4.018.171-6.373-2.027-9.291-4.749l-.454-.423c-3.102-2.884-6.769-6.006-13.34-6.006-4.484 0-8.014 2.065-10.84 4.316-1.191.948-2.281 1.95-3.262 2.852l-.008.007-.52.477c-1.141 1.042-2.091 1.868-2.941 2.368-1.663.979-3.902 1.208-5.837 1.153a20.76 20.76 0 0 1-2.387-.209 16.99 16.99 0 0 1-.698-.115l-.182-.036-.044-.009-.009-.002h-.001 0 0a1.03 1.03 0 0 0-.163-.023c-2.309-.742-4.1-2.413-6.176-4.35l-.011-.011-.443-.412c-3.102-2.884-6.77-6.006-13.34-6.006-4.484 0-8.014 2.065-10.84 4.316-1.191.948-2.281 1.95-3.262 2.852l-.528.484c-1.141 1.042-2.091 1.868-2.941 2.368-1.663.979-3.902 1.208-5.837 1.153a20.76 20.76 0 0 1-2.387-.209c-.299-.043-.537-.085-.699-.115l-.181-.036-.044-.009-.009-.002h-.001 0 0c-.055-.013-.109-.02-.163-.023-2.309-.742-4.1-2.413-6.176-4.35l-.454-.423c-3.103-2.884-6.77-6.006-13.341-6.006-4.483 0-8.013 2.065-10.839 4.316-1.191.948-2.281 1.95-3.263 2.852h0l-.528.484c-1.14 1.042-2.09 1.868-2.94 2.368-1.663.979-3.902 1.208-5.838 1.153a20.74 20.74 0 0 1-2.386-.209c-.299-.043-.538-.085-.699-.115l-.182-.036-.043-.009-.009-.002h-.001-.001 0 0a.95.95 0 0 0-.236-.024c-2.306-.743-4.097-2.413-6.171-4.349l-.454-.423c-3.103-2.884-6.77-6.006-13.341-6.006-4.484 0-8.013 2.065-10.84 4.316-1.19.948-2.28 1.95-3.262 2.852h0l-.528.484c-1.141 1.042-2.09 1.868-2.94 2.368-1.663.979-3.902 1.208-5.838 1.153a20.72 20.72 0 0 1-2.386-.209c-.3-.043-.538-.085-.699-.115l-.182-.036-.043-.009-.01-.002h0-.001 0 0a1 1 0 0 0-1.193.758 1 1 0 0 0 .759 1.194l.217-.976-.217.976h.001l.002.001.005.001.017.003.06.013.216.042a19.06 19.06 0 0 0 .779.129 22.89 22.89 0 0 0 2.618.229c2.052.058 4.754-.16 6.909-1.428zm0 27.566c1.059-.623 2.157-1.594 3.275-2.616l.54-.494.003-.004c.983-.902 2.014-1.849 3.144-2.749 2.674-2.129 5.767-3.881 9.594-3.881 5.779 0 8.962 2.666 11.979 5.471l.556.519v.001c2.811 2.634 5.755 5.393 10.635 5.186.038-.002.075-.006.111-.011l.185.006c2.052.059 4.754-.16 6.909-1.428 1.059-.623 2.158-1.594 3.275-2.616l.544-.498h0c.982-.902 2.013-1.849 3.144-2.749 2.673-2.129 5.766-3.881 9.593-3.881 5.779 0 8.962 2.666 11.979 5.471l.556.52c2.811 2.634 5.755 5.393 10.636 5.186a1.59 1.59 0 0 0 .097-.009l.13.004c2.051.059 4.753-.16 6.908-1.428 1.059-.623 2.158-1.594 3.276-2.616l.543-.498c.982-.902 2.013-1.849 3.144-2.749 2.673-2.129 5.766-3.881 9.594-3.881 5.778 0 8.961 2.666 11.978 5.471l.557.52c2.81 2.634 5.755 5.393 10.635 5.186a1.52 1.52 0 0 0 .097-.009l.13.004c2.051.059 4.754-.16 6.909-1.428 1.059-.623 2.157-1.594 3.275-2.616l.535-.49.008-.008c.982-.902 2.014-1.849 3.144-2.749 2.673-2.129 5.766-3.881 9.594-3.881 5.779 0 8.962 2.666 11.979 5.471l.282.263.274.257c2.811 2.634 5.755 5.393 10.635 5.186a1 1 0 0 0 .957-1.042 1 1 0 0 0-1.042-.956c-4.018.17-6.373-2.028-9.291-4.75l-.014-.013-.44-.41c-3.102-2.884-6.769-6.006-13.34-6.006-4.484 0-8.014 2.065-10.84 4.316-1.191.948-2.281 1.95-3.262 2.852h0l-.009.008-.519.476c-1.141 1.042-2.091 1.868-2.941 2.368-1.663.979-3.902 1.208-5.837 1.153a20.76 20.76 0 0 1-2.387-.209 16.99 16.99 0 0 1-.698-.115l-.182-.036-.044-.009-.009-.002h-.001 0 0a1.03 1.03 0 0 0-.163-.023c-2.309-.741-4.1-2.413-6.176-4.35l-.014-.013-.44-.41c-3.102-2.884-6.77-6.006-13.34-6.006-4.484 0-8.014 2.065-10.84 4.316-1.191.948-2.281 1.95-3.262 2.852h0-.001l-.016.015-.511.469c-1.141 1.042-2.091 1.868-2.941 2.368-1.663.979-3.902 1.208-5.837 1.153a20.76 20.76 0 0 1-2.387-.209c-.299-.043-.537-.085-.699-.115l-.181-.036-.044-.009-.009-.002h-.001 0 0a1.03 1.03 0 0 0-.163-.023c-2.309-.741-4.1-2.413-6.176-4.35l-.003-.003-.451-.42c-3.103-2.884-6.77-6.006-13.341-6.006-4.483 0-8.013 2.065-10.839 4.316-1.191.948-2.281 1.95-3.263 2.852l-.528.484c-1.14 1.042-2.09 1.868-2.94 2.368-1.663.979-3.902 1.208-5.838 1.153a20.74 20.74 0 0 1-2.386-.209c-.299-.043-.538-.085-.699-.115l-.182-.036-.043-.009-.009-.002h-.001-.001 0 0a.95.95 0 0 0-.236-.024c-2.306-.742-4.097-2.413-6.171-4.349l-.003-.003-.009-.007-.008-.008-.434-.405c-3.103-2.884-6.77-6.006-13.341-6.006-4.484 0-8.013 2.065-10.84 4.316-1.19.948-2.28 1.95-3.262 2.852l-.528.484c-1.141 1.042-2.09 1.868-2.94 2.368-1.663.979-3.902 1.208-5.838 1.153a20.72 20.72 0 0 1-2.386-.209c-.3-.043-.538-.085-.699-.115l-.182-.036-.043-.009-.01-.002h0-.001 0 0a1 1 0 0 0-1.193.758 1 1 0 0 0 .759 1.194l.217-.976-.217.976h.001l.002.001.005.001.017.003.06.013.216.042a19.06 19.06 0 0 0 .779.129 22.89 22.89 0 0 0 2.618.229c2.052.059 4.754-.16 6.909-1.428z" class="B E"/><rect x="921.087" y="90.166" width="545.697" height="61.537" rx="30.768" class="B D"/><rect x="1088.64" y="404.22" width="278.155" height="29.17" rx="14.585" class="B D"/><rect x="377.417" y="214.547" width="320.94" height="42.745" rx="21.372" class="B D"/><g class="D B"><path d="M478.922 403.397l-19.631 19.632a3.08 3.08 0 0 0-.903 2.181l-.003 78.558a41.65 41.65 0 0 0-16.453 20.835c-3.064 8.554-3.247 17.876-.52 26.543a41.64 41.64 0 0 0 15.624 21.464 41.65 41.65 0 0 0 25.419 7.662c9.082-.288 17.821-3.538 24.883-9.255s12.062-13.587 14.235-22.409 1.401-18.115-2.199-26.458a41.65 41.65 0 0 0-17.738-19.752l-.003-13.936c0-.816-.323-1.599-.898-2.177l-10.907-10.906 10.907-10.906a3.09 3.09 0 0 0 .903-2.182c0-.818-.325-1.602-.903-2.181l-10.907-10.906 10.907-10.907c.578-.578.903-1.363.903-2.181v-13.087c0-.819-.325-1.603-.903-2.182l-17.45-17.45a3.09 3.09 0 0 0-2.182-.903c-.818 0-1.602.325-2.181.903zm10.906 150.507c-1.725 1.726-3.924 2.901-6.317 3.377a12.34 12.34 0 0 1-12.667-5.247c-1.356-2.029-2.08-4.414-2.08-6.855a12.34 12.34 0 0 1 2.08-6.855c1.356-2.029 3.283-3.611 5.537-4.545a12.34 12.34 0 0 1 13.447 2.675 12.34 12.34 0 0 1 0 17.45z"/></g><g class="D C"><path d="M1213.08 305.735l19.63 19.631a3.1 3.1 0 0 0 2.19.903l78.55.003c4.97 7.61 12.29 13.388 20.84 16.453a41.64 41.64 0 0 0 26.54.52c8.67-2.727 16.21-8.214 21.47-15.624a41.62 41.62 0 0 0 7.66-25.419c-.29-9.082-3.54-17.821-9.26-24.883-5.71-7.063-13.58-12.062-22.41-14.235a41.62 41.62 0 0 0-26.45 2.199c-8.35 3.6-15.28 9.829-19.76 17.739l-13.93.002a3.09 3.09 0 0 0-2.18.898l-10.9 10.907-10.91-10.907c-.58-.578-1.36-.903-2.18-.903s-1.61.325-2.18.903l-10.91 10.907-10.91-10.907c-.57-.578-1.36-.903-2.18-.903h-13.09a3.1 3.1 0 0 0-2.18.903l-17.45 17.451c-.57.578-.9 1.363-.9 2.181s.33 1.603.9 2.181zm150.51-10.906c1.73 1.725 2.9 3.924 3.38 6.318.47 2.393.23 4.874-.7 7.129-.94 2.254-2.52 4.182-4.55 5.537s-4.41 2.08-6.85 2.08-4.83-.724-6.86-2.08-3.61-3.283-4.54-5.537c-.94-2.255-1.18-4.736-.71-7.129.48-2.394 1.65-4.593 3.38-6.318a12.33 12.33 0 0 1 8.73-3.614c3.27 0 6.41 1.3 8.72 3.614z"/></g><path d="M814.761 457.169l-20.799-20.798a3.27 3.27 0 0 1-.956-2.311l-.003-83.228a44.12 44.12 0 0 1-17.431-22.073c-3.246-9.063-3.44-18.938-.551-28.121s8.703-17.169 16.553-22.74a44.12 44.12 0 0 1 53.292 1.688c7.482 6.057 12.778 14.395 15.08 23.742a44.11 44.11 0 0 1-2.329 28.029c-3.814 8.839-10.413 16.188-18.793 20.927l-.002 14.764c0 .865-.342 1.694-.952 2.306l-11.555 11.555 11.555 11.555c.613.612.957 1.444.957 2.31a3.27 3.27 0 0 1-.957 2.311l-11.555 11.555 11.555 11.554a3.27 3.27 0 0 1 .956 2.311v13.866c.001.867-.344 1.698-.956 2.311l-18.488 18.487c-.612.613-1.444.957-2.311.957s-1.698-.344-2.31-.957zm11.554-159.453c-1.828-1.828-4.157-3.073-6.693-3.577a13.07 13.07 0 0 0-7.553.743c-2.389.99-4.43 2.665-5.867 4.815a13.07 13.07 0 0 0-2.203 7.263 13.08 13.08 0 0 0 2.203 7.263c1.437 2.149 3.478 3.825 5.867 4.814a13.07 13.07 0 0 0 7.553.744 13.06 13.06 0 0 0 6.693-3.578 13.07 13.07 0 0 0 3.829-9.243c0-3.467-1.377-6.792-3.829-9.244zm-464.834 1.106c-32.885-.438-67.146 6.34-68.992 6.711l-.168.032c-6.902 1.302-11.843 7.331-11.935 14.266l-.591 44.341c-.661 49.607 23.696 86.804 73.075 111.42 3.358 1.744 7.246 1.796 10.818.144 51.2-23.276 77.217-59.801 77.878-109.408l.588-44.171c.083-6.201-3.548-11.552-9.037-13.801-1.644-.673-3.508-1.047-5.242-1.432-8.776-1.95-38.025-7.724-66.394-8.102z" class="C"/><circle cx="360.379" cy="377.478" r="47.286" fill="#fff"/><path d="M353.729 369.358v-9.468c0-1.304.949-2.361 2.12-2.361h9.06c1.17 0 2.119 1.057 2.119 2.361v19.021a1.67 1.67 0 0 1-.414 1.113l-1.324 1.476c-.552.614-.552 1.611 0 2.226l1.324 1.476c.265.295.414.695.414 1.113v8.75c0 1.304-.949 2.362-2.119 2.362h-9.06c-1.171 0-2.12-1.058-2.12-2.362l.015-18.326c0-.417.148-.818.414-1.113l1.324-1.476c.552-.614.552-1.611 0-2.226l-1.324-1.476c-.266-.295-.414-.695-.429-1.09z" class="B"/><circle cx="360.379" cy="377.478" r="32.474" stroke="#0572ec" stroke-width="10"/><rect x="544.235" y="424.005" width="127.389" height="127.389" rx="14.244" class="H"/><rect x="562.745" y="459.608" width="90.708" height="56.834" rx="5.697" stroke="#69b3e7" stroke-width="2.849" class="J"/><path d="M559.903 463.888c0-3.933 3.188-7.122 7.122-7.122h82.148c3.933 0 7.121 3.189 7.121 7.122v1.511c0 2.196-1.111 4.242-2.952 5.438l-39.306 25.52c-2.762 1.793-6.308 1.84-9.116.121l-41.919-25.662a6.48 6.48 0 0 1-3.098-5.529v-1.399z" stroke="#0067b9" stroke-width="4.273" class="J"/><circle cx="670.291" cy="424.718" r="23.502" class="I"/><circle cx="965.662" cy="463.437" r="22.5" class="B"/><path d="M1014.96 459.153c-20.011-28.175-41.837-31.216-50.296-31.216-8.531 0-30.512 3.043-50.319 31.24-.773 1.1-1.186 2.414-1.183 3.76s.423 2.658 1.201 3.755c5.199 7.331 24.175 31.245 50.301 31.245 8.398 0 30.105-3.042 50.276-31.222.79-1.101 1.22-2.422 1.22-3.778a6.42 6.42 0 0 0-1.2-3.784h0zm-50.286 23.784c-3.943 0-7.798-1.173-11.076-3.371s-5.834-5.321-7.343-8.976a20.06 20.06 0 0 1-1.134-11.555 20.02 20.02 0 0 1 5.456-10.241c2.788-2.797 6.34-4.701 10.208-5.473a19.87 19.87 0 0 1 11.518 1.138c3.643 1.514 6.757 4.077 8.947 7.366s3.36 7.156 3.36 11.112c0 5.304-2.1 10.391-5.839 14.142a19.91 19.91 0 0 1-14.097 5.858z" class="H"/><rect x="1139.87" y="101.477" width="38.913" height="38.913" rx="7.783" class="H"/><path d="M1241.04 107.314c0-3.224-2.61-5.837-5.83-5.837h-27.24c-3.22 0-5.84 2.613-5.84 5.837h0c0 3.224 2.62 5.837 5.84 5.837h27.24c3.22 0 5.83-2.613 5.83-5.837h0zm38.92 27.239c0-3.224-2.62-5.837-5.84-5.837h-66.15c-3.22 0-5.84 2.613-5.84 5.837h0c0 3.224 2.62 5.837 5.84 5.837h66.15c3.22 0 5.84-2.613 5.84-5.837h0z" class="B E"/><rect x="1139.87" y="171.521" width="38.913" height="38.913" rx="7.783" class="J"/><path d="M1272.18 177.357c0-3.223-2.62-5.836-5.84-5.836h-58.37c-3.22 0-5.84 2.613-5.84 5.836h0c0 3.224 2.62 5.837 5.84 5.837h58.37c3.22 0 5.84-2.613 5.84-5.837h0zm0 27.24c0-3.224-2.62-5.837-5.84-5.837h-58.37c-3.22 0-5.84 2.613-5.84 5.837h0c0 3.223 2.62 5.837 5.84 5.837h58.37c3.22 0 5.84-2.614 5.84-5.837h0z" class="B E"/><rect x="1139.87" y="237.673" width="38.913" height="38.913" rx="7.783" class="I"/><path d="M1272.18 243.51c0-3.224-2.62-5.837-5.84-5.837h-58.37c-3.22 0-5.84 2.613-5.84 5.837h0c0 3.223 2.62 5.837 5.84 5.837h58.37c3.22 0 5.84-2.614 5.84-5.837h0zm-31.14 27.239c0-3.224-2.61-5.837-5.83-5.837h-27.24c-3.22 0-5.84 2.613-5.84 5.837h0c0 3.224 2.62 5.837 5.84 5.837h27.24c3.22 0 5.83-2.613 5.83-5.837h0z" class="B E"/><rect x="409.234" y="456.766" width="33.217" height="33.217" rx="7.783" class="C D"/><rect x="407.665" y="190.122" width="128.234" height="91.596" rx="16.861" class="C"/><path d="M508.42 220.654a6.11 6.11 0 0 0-6.106-6.106H441.25a6.11 6.11 0 0 0-6.106 6.106h0a6.11 6.11 0 0 0 6.106 6.107h61.064a6.11 6.11 0 0 0 6.106-6.107h0zm-24.425 30.532a6.11 6.11 0 0 0-6.107-6.106H441.25a6.11 6.11 0 0 0-6.106 6.106h0c0 3.373 2.734 6.106 6.106 6.106h36.638c3.373 0 6.107-2.733 6.107-6.106h0z" class="B E"/><rect x="309.963" y="153.484" width="140.447" height="54.957" rx="27.479" class="H"/><path d="M337.686 196.534c12.335-.947 22.99-9.831 30.746-18.93 3.327-3.877 5.007-10.717-.306-13.892-5.007-3.022-11.236.916-14.38 4.824-6.412 7.969-8.763 24.334 4.763 26.166 11.48 1.557 23.021-6.992 27.448-17.128 1.343-3.115-1.435-6.32-4.702-4.702-5.435 2.717-5.374 10.35-.977 13.983 6.228 5.191 13.983.855 20.426-1.221l-4.214-4.213c-1.16 4.518 1.832 8.61 6.32 9.617 2.351.519 4.702-.061 6.901-.885 2.503-.977 5.831-3.45 8.549-2.015 3.908 2.076 7.388-3.847 3.48-5.924-2.87-1.526-5.77-1.679-8.854-.763-.886.275-10.411 4.427-9.709 1.802.641-2.443-1.679-5.038-4.214-4.214-3.297 1.069-6.656 3.084-10.167 3.389-1.313.122-3.511.122-4.396-1.099-.672-.946-.641-2.015.397-2.534l-4.702-4.702c-2.748 6.259-7.816 11.236-14.503 13.159-3.206.916-8.488 1.771-9.953-2.168-1.222-3.175.427-7.358 2.015-10.106.824-1.435 1.832-2.9 3.175-3.908 1.069-.824 3.878-2.564 3.755-.335-.122 2.839-5.434 6.594-7.388 8.426-5.465 5.099-11.816 9.923-19.51 10.503-4.366.336-4.427 7.206 0 6.87z" class="B"/><rect x="961.415" y="468.127" width="378.627" height="56" rx="28" class="I"/><circle cx="1016.16" cy="496.127" r="12.955" class="B"/><circle cx="1062.13" cy="496.127" r="12.955" class="B"/><circle cx="1108.1" cy="496.127" r="12.955" class="B"/><circle cx="1154.07" cy="496.127" r="12.955" class="B"/><circle cx="1200.04" cy="496.127" r="12.955" class="B"/><circle cx="1246.01" cy="496.127" r="12.955" class="B"/><circle cx="1291.98" cy="496.127" r="12.955" class="B"/><path d="M1031.77 108.865c-26.58-.354-54.279 5.118-55.84 5.431l-.146.028c-5.585 1.056-9.583 5.935-9.658 11.548l-.478 35.893c-.535 40.157 19.182 70.267 59.152 90.194 2.72 1.412 5.87 1.454 8.76.117 41.44-18.842 62.5-48.409 63.04-88.566l.48-35.756c.06-4.983-2.83-9.289-7.22-11.132-1.39-.582-2.97-.894-4.44-1.22-7.22-1.598-30.79-6.232-53.65-6.537z" class="C"/><path d="M1050.88 166.89v-13.5c0-11.322-9.18-20.5-20.5-20.5h0c-11.32 0-20.5 9.178-20.5 20.5v13.5" stroke="#ffd480" stroke-width="8"/><rect x="1062.88" y="163.89" width="48" height="64" rx="7.011" transform="rotate(90 1062.88 163.89)" class="I"/><path d="M1022.88 182.871c-.08-4.361 3.45-7.981 7.92-7.981 4.37 0 8 3.538 8.08 7.899 0 2.962-1.52 5.513-3.87 6.911l.16 11.19h-7.99l-.17-11.19c-2.44-1.316-4.04-3.867-4.13-6.829z" class="B"/><path d="M694.51 82.184l-19.631-19.631c-.579-.578-1.364-.903-2.182-.903l-78.558-.002c-4.964-7.611-12.281-13.389-20.835-16.453s-17.876-3.247-26.543-.52a41.64 41.64 0 0 0-21.464 15.624c-5.259 7.41-7.949 16.337-7.662 25.419a41.65 41.65 0 0 0 9.255 24.883c5.717 7.062 13.587 12.061 22.41 14.234s18.114 1.401 26.457-2.199 15.279-9.829 19.752-17.738l13.936-.002c.816 0 1.599-.323 2.177-.899l10.906-10.906 10.907 10.906c.578.578 1.363.903 2.181.903s1.603-.325 2.181-.903l10.906-10.906 10.907 10.906c.578.578 1.363.903 2.181.903h13.088c.818 0 1.602-.325 2.181-.903l17.45-17.45c.578-.578.903-1.363.903-2.181s-.325-1.603-.903-2.181zM544.003 93.091c-1.726-1.726-2.901-3.924-3.377-6.318a12.34 12.34 0 0 1 5.247-12.667c2.029-1.356 4.414-2.079 6.855-2.079a12.34 12.34 0 0 1 11.4 7.617 12.34 12.34 0 0 1 .702 7.129c-.476 2.394-1.651 4.592-3.377 6.318a12.34 12.34 0 0 1-17.45 0z" class="I"/><path d="M1152.49 366.227h116.825v64.189H1152.49z" class="B"/><path d="M1139.87 361.56c0-5.222 4.23-9.455 9.46-9.455h127c5.22 0 9.45 4.233 9.45 9.455v71.734c0 5.221-4.23 9.454-9.45 9.454h-127c-5.23 0-9.46-4.233-9.46-9.454V361.56zm17.69 18.864a4 4 0 0 1 4-4h27.37a4 4 0 0 1 4 4v34.005a4 4 0 0 1-4 4h-27.37a4 4 0 0 1-4-4v-34.005zm90.64 2.632c2.44 0 4.42 1.98 4.42 4.422s-1.98 4.422-4.42 4.422h-28.74c-2.44 0-4.42-1.98-4.42-4.422s1.98-4.422 4.42-4.422h28.74zm11.06 22.108c2.44 0 4.42 1.98 4.42 4.422s-1.98 4.422-4.42 4.422h-39.8c-2.44 0-4.42-1.98-4.42-4.422s1.98-4.422 4.42-4.422h39.8z" fill="#0572ec" class="E"/><path d="M771.582 193.9v-60.819l80.288 53.692-9.379 7.127h-70.909z" fill="#ffc107"/><path d="M862.527 187.476v-54.395L771.582 193.9h84.521c3.548 0 6.424-2.876 6.424-6.424z" fill="#fff"/><mask id="B" maskUnits="userSpaceOnUse" x="735" y="109" width="227" height="205" mask-type="alpha"><path transform="rotate(326.3 735.781 218.004)" fill="#c4c4c4" d="M735.781 218.004H930.46V333.39H735.781z"/></mask><g mask="url(#B)" class="E J"><use xlink:href="#E"/></g><mask id="C" maskUnits="userSpaceOnUse" x="671" y="14" width="227" height="205" mask-type="alpha"><path transform="rotate(146.3 897.812 109.996)" fill="#c4c4c4" d="M897.812 109.996h194.679v115.386H897.812z"/></mask><g mask="url(#C)" class="E H"><use xlink:href="#E"/></g></g><defs ><path id="E" d="M817.055 259.267c52.895 0 95.776-42.88 95.776-95.776s-42.881-95.777-95.776-95.777-95.777 42.881-95.777 95.777 42.881 95.776 95.777 95.776zm0-19.894c41.908 0 75.882-33.974 75.882-75.882s-33.974-75.882-75.882-75.882-75.883 33.973-75.883 75.882 33.974 75.882 75.883 75.882z"/></defs></svg>